<?xml version="1.0" encoding="UTF-8" standalone="no"?>
<!-- Created with Inkscape (http://www.inkscape.org/) -->

<svg
   width="46.013mm"
   height="46.012985mm"
   viewBox="0 0 46.013 46.012985"
   version="1.1"
   id="svg5"
   xml:space="preserve"
   inkscape:version="1.3 (0e150ed6c4, 2023-07-21)"
   sodipodi:docname="_ICONsQueFiz.svg"
   xmlns:inkscape="http://www.inkscape.org/namespaces/inkscape"
   xmlns:sodipodi="http://sodipodi.sourceforge.net/DTD/sodipodi-0.dtd"
   xmlns="http://www.w3.org/2000/svg"
   xmlns:svg="http://www.w3.org/2000/svg"><sodipodi:namedview
     id="namedview7"
     pagecolor="#ffffff"
     bordercolor="#999999"
     borderopacity="1"
     inkscape:showpageshadow="0"
     inkscape:pageopacity="0"
     inkscape:pagecheckerboard="0"
     inkscape:deskcolor="#d1d1d1"
     inkscape:document-units="mm"
     showgrid="false"
     showguides="true"
     inkscape:zoom="0.45254831"
     inkscape:cx="-396.64274"
     inkscape:cy="-809.85829"
     inkscape:window-width="1920"
     inkscape:window-height="991"
     inkscape:window-x="-9"
     inkscape:window-y="-9"
     inkscape:window-maximized="1"
     inkscape:current-layer="layer1"><sodipodi:guide
       position="258.36508,16.262673"
       orientation="0,-1"
       id="guide7"
       inkscape:locked="false" /><sodipodi:guide
       position="258.36508,-29.750697"
       orientation="0,-1"
       id="guide8"
       inkscape:locked="false" /><sodipodi:guide
       position="1104.3087,10.325303"
       orientation="0,-1"
       id="guide30"
       inkscape:locked="false" /><sodipodi:guide
       position="2679.7823,-21.573317"
       orientation="0,-1"
       id="guide1"
       inkscape:locked="false" /><sodipodi:guide
       position="2115.2846,25.297443"
       orientation="0,-1"
       id="guide67"
       inkscape:locked="false" /><sodipodi:guide
       position="152.7378,96.190963"
       orientation="0,-1"
       id="guide6"
       inkscape:locked="false" /><sodipodi:guide
       position="152.7378,142.20434"
       orientation="0,-1"
       id="guide9"
       inkscape:locked="false" /><sodipodi:guide
       position="227.4826,250.98701"
       orientation="0,-1"
       id="guide10"
       inkscape:locked="false" /><sodipodi:guide
       position="497.3547,297.00037"
       orientation="0,-1"
       id="guide11"
       inkscape:locked="false" /></sodipodi:namedview><defs
     id="defs2"><style
       type="text/css"
       id="style1-2">&#10;   <![CDATA[
    .fil0 {fill:none}
    .fil2 {fill:black;fill-rule:nonzero}
    .fil3 {fill:#ACD4F7;fill-rule:nonzero}
    .fil4 {fill:#DEDEDE;fill-rule:nonzero}
    .fil1 {fill:white;fill-rule:nonzero}
   ]]>&#10;  </style></defs><g
     inkscape:label="Layer 1"
     inkscape:groupmode="layer"
     id="layer1"
     transform="translate(117.41593,277.78799)"><g
       id="g91"
       transform="matrix(0.33502238,0,0,0.33502238,-38.84688,-147.88637)"
       style="stroke-width:2.98488"><rect
         style="fill:#f37036;fill-opacity:1;fill-rule:evenodd;stroke-width:2.28343;stroke-linecap:round;-inkscape-stroke:none"
         id="rect60"
         width="137.34306"
         height="137.34306"
         x="-234.51883"
         y="-387.74014"
         ry="27.618076" /><g
         id="g90"
         transform="matrix(5.4111758,0,0,5.4111758,1066.5506,659.99316)"
         style="stroke-width:0.551614"><path
           fill="#ffffff"
           d="m -220.53815,-190.97892 a 2.6558875,2.6558875 0 0 0 -1.52956,0.64188 2.6532416,2.6532416 0 0 0 -0.40746,3.56262 2.6532416,2.6532416 0 0 0 3.51261,0.71834 h 5.3e-4 v 2.6e-4 l 0.0413,0.041 a 2.8125208,2.8125208 0 0 0 0.5199,-0.38364 2.7360562,2.7360562 0 0 0 -0.0413,-3.8018 v -5.3e-4 l -2.33998,2.32542 -0.0413,-0.041 2.33997,-2.32648 a 2.6558875,2.6558875 0 0 0 -2.05475,-0.73554 z m -3.08081,3.80656 c -1.12183,-0.002 -2.95354,1.26974 -7.42606,5.74225 l 0.0222,0.0228 c -0.0243,-0.008 -0.0489,-0.009 -0.0489,-0.009 l -1.68381,1.66899 a 0.27384375,0.27384375 0 0 0 0.24606,0.4662 l 2.88766,-0.61595 a 0.08122708,0.08122708 0 0 0 0.0243,-0.045 l 0.064,0.0661 -0.98425,0.97631 h -0.0476 l -5.84359,5.88963 1.87484,1.80552 a 0.3317875,0.3317875 0 0 0 0.39053,0.0394 0.35110208,0.35110208 0 0 0 0.17065,-0.35878 l -0.27384,-1.19062 a 0.1412875,0.1412875 0 0 1 0,-0.16404 31.031656,31.031656 0 0 0 7.07443,-4.65217 l -1.19989,-1.20042 0.0228,-0.004 -0.71172,-0.71146 0.0455,-0.046 0.0482,0.0492 -0.0249,0.0241 1.88833,1.9296 v -7.9e-4 c 3.6195,-3.42741 6.1886,-6.18252 5.52053,-8.03672 a 1.0133542,1.0133542 0 0 0 -0.29289,-0.5842 v 0.001 a 0.99959582,0.99959582 0 0 0 -0.1278,-0.081 c -0.022,-0.0233 -0.0413,-0.0471 -0.0646,-0.0699 l -0.0175,0.0175 a 0.99959582,0.99959582 0 0 0 -0.15399,-0.0767 l 0.0765,-0.0773 c -0.47519,-0.42333 -0.86783,-0.77364 -1.45521,-0.77523 z m -12.8307,14.19728 -1.36816,1.36842 v 0.001 a 0.27252083,0.27252083 0 0 0 -0.12092,0.29766 0.27384375,0.27384375 0 0 0 0.24368,0.20875 l 3.3528,0.23152 z"
           id="path2-80"
           style="stroke-width:0.145948" /><path
           fill="#f37036"
           d="m -220.30743,-191.20487 a 2.922852,2.922852 0 0 0 -2.05291,0.83873 2.9072416,2.9072416 0 0 0 -0.63235,3.08001 c -1.25439,-0.5371 -2.95143,0.39952 -8.23013,5.67717 a 0.24659166,0.24659166 0 0 0 -0.01,0.0249 0.3286125,0.3286125 0 0 0 -0.0315,0.0164 l -1.66925,1.68381 a 0.52122916,0.52122916 0 0 0 -0.096,0.61489 0.53234166,0.53234166 0 0 0 0.45164,0.26035 l 0.0828,-0.0537 2.22885,-0.47546 -1.06627,1.07606 a 0.23098125,0.23098125 0 0 0 -0.0143,0.0439 l -5.2255,5.23848 a 0.2111375,0.2111375 0 0 0 -0.0508,0.063 l -1.34567,1.34673 a 0.52043541,0.52043541 0 0 0 -0.10953,0.54054 0.52784374,0.52784374 0 0 0 0.43815,0.3347 l 3.33851,0.23284 a 0.26722916,0.26722916 0 0 0 0.13758,-0.10981 0.23442083,0.23442083 0 0 0 0,-0.27384 l -0.007,-0.007 a 0.59346041,0.59346041 0 0 0 0.18653,-0.15346 0.59187291,0.59187291 0 0 0 0.10743,-0.49636 l -0.26035,-1.10781 a 33.529322,33.529322 0 0 0 6.96751,-4.46114 0.28866041,0.28866041 0 0 0 0.0656,0.0273 c 0.0672,-0.005 0.13017,-0.0339 0.1778,-0.0815 3.5851,-3.39461 5.69251,-5.72082 5.69251,-7.56761 a 2.1246041,2.1246041 0 0 0 -0.11404,-0.75407 2.8990395,2.8990395 0 0 0 1.01733,0.21961 l -0.004,0.001 a 2.9683604,2.9683604 0 0 0 1.37133,-0.38365 0.20505208,0.20505208 0 0 0 0.001,2.7e-4 0.22092708,0.22092708 0 0 0 0.16325,-0.0146 2.4865541,2.4865541 0 0 0 0.54769,-0.43709 2.8768145,2.8768145 0 0 0 0.86201,-2.05264 2.8768145,2.8768145 0 0 0 -0.86175,-2.05263 0.2460625,0.2460625 0 0 0 -0.0312,-0.0241 2.9223229,2.9223229 0 0 0 -2.02565,-0.81439 z m -0.023,0.46884 a 2.4526875,2.4526875 0 0 1 1.47796,0.50641 l -2.13466,2.14762 a 0.22225,0.22225 0 0 0 -0.0201,0.0259 0.21960416,0.21960416 0 0 0 -0.0632,0.14552 0.22013333,0.22013333 0 0 0 0.0828,0.17198 h 5.3e-4 l 1.61396,1.61396 a 2.3928916,2.3928916 0 0 1 -2.65324,-0.50615 c -0.68422,-0.68791 -0.88265,-1.72085 -0.51673,-2.61699 0.36591,-0.89694 1.23825,-1.48299 2.21271,-1.48828 z m 1.88383,0.90805 a 2.3468541,2.3468541 0 0 1 0.5379,1.50124 2.4209375,2.4209375 0 0 1 -0.7112,1.71027 2.6429229,2.6429229 0 0 1 -0.29051,0.2368 l -1.30255,-1.28243 -0.25479,-0.2548 0.0701,-0.0701 1.95078,-1.8415 z m -0.0968,1.1094 a 0.20558125,0.20558125 0 0 0 -0.14552,0.008 0.19341041,0.19341041 0 0 0 -0.0953,0.11271 0.19314583,0.19314583 0 0 0 0.0132,0.1479 0.58896249,0.58896249 0 0 1 -0.068,0.61595 0.16933333,0.16933333 0 0 0 -0.0516,0.12912 c 0.001,0.0487 0.0185,0.0952 0.0516,0.13018 a 0.15345833,0.15345833 0 0 0 0.10954,0 0.17991666,0.17991666 0 0 0 0.1778,-0.0548 0.94535624,0.94535624 0 0 0 0.12303,-0.99933 v 0.001 a 0.20558125,0.20558125 0 0 0 -0.11483,-0.091 z m -5.10037,1.77879 a 1.4774333,1.4774333 0 0 1 0.87577,0.32438 1.2583583,1.2583583 0 0 0 -0.70935,0.35454 l -6.03435,6.00737 -1.18427,-1.18428 c 3.12949,-3.11467 5.04295,-4.7416 6.23252,-5.27473 a 1.4774333,1.4774333 0 0 1 0.81968,-0.22754 z m 1.04907,0.78317 a 0.76596874,0.76596874 0 0 1 0.54055,0.22331 0.73712916,0.73712916 0 0 1 0.23256,0.56118 0.75908957,0.75908957 0 0 1 -0.26061,0.54768 l -6.41615,5.5843 -0.69241,-0.69241 6.05552,-6.00075 a 0.76596874,0.76596874 0 0 1 0.54054,-0.22305 z m 0.79216,1.77218 c -0.44714,1.77323 -2.81701,4.17592 -5.28822,6.5106 l -0.99933,-0.99827 6.28782,-5.51233 z m -9.24242,3.29644 0.0725,0.0714 0.92948,0.92948 -2.54794,0.54504 z m 1.53273,1.54517 10e-4,0.001 0.30903,0.31617 a 0.2873375,0.2873375 0 0 0 0.005,0.0222 l 0.0206,0.003 0.0656,0.0672 0.21696,0.22225 -1.42478,0.17462 0.80698,-0.80698 z m 1.02314,1.07844 0.94668,0.94615 a 33.599966,33.599966 0 0 1 -6.8408,4.4069 0.381,0.381 0 0 0 -0.20558,0.43735 l 0.27385,1.19063 a 0.08202083,0.08202083 0 0 1 0,0.096 0.08202083,0.08202083 0 0 1 -0.10954,0 l -1.61449,-1.62771 4.97628,-5.04931 2.57387,-0.40005 z m -7.91977,5.80496 0.22993,0.21537 1.1885,1.18851 -2.65006,-0.17145 1.23163,-1.2327 z"
           id="path3-903"
           style="stroke-width:0.145948" /></g></g></g><style
     type="text/css"
     id="style1">&#10;	.st0{fill:#76C2AF;}&#10;	.st1{opacity:0.2;}&#10;	.st2{fill:#231F20;}&#10;	.st3{fill:#FFFFFF;}&#10;</style><style
     type="text/css"
     id="style1-1">&#10;	.st0{fill:#C75C5C;}&#10;	.st1{opacity:0.2;}&#10;	.st2{fill:#231F20;}&#10;	.st3{fill:#E0995E;}&#10;	.st4{fill:#F5CF87;}&#10;	.st5{fill:#4F5D73;}&#10;</style><style
     type="text/css"
     id="style1-9">	.st0{clip-path:url(#SVGID_2_);fill:#E30613;}	.st1{clip-path:url(#SVGID_2_);}</style></svg>
