<?xml version="1.0" encoding="UTF-8" standalone="no"?>
<!-- Created with Inkscape (http://www.inkscape.org/) -->

<svg
   width="34.698689mm"
   height="46.012985mm"
   viewBox="0 0 34.698689 46.012985"
   version="1.1"
   id="svg5"
   xml:space="preserve"
   inkscape:version="1.3 (0e150ed6c4, 2023-07-21)"
   sodipodi:docname="_ICONsQueFiz.svg"
   xmlns:inkscape="http://www.inkscape.org/namespaces/inkscape"
   xmlns:sodipodi="http://sodipodi.sourceforge.net/DTD/sodipodi-0.dtd"
   xmlns="http://www.w3.org/2000/svg"
   xmlns:svg="http://www.w3.org/2000/svg"><sodipodi:namedview
     id="namedview7"
     pagecolor="#ffffff"
     bordercolor="#999999"
     borderopacity="1"
     inkscape:showpageshadow="0"
     inkscape:pageopacity="0"
     inkscape:pagecheckerboard="0"
     inkscape:deskcolor="#d1d1d1"
     inkscape:document-units="mm"
     showgrid="false"
     showguides="true"
     inkscape:zoom="0.31999998"
     inkscape:cx="-789.06255"
     inkscape:cy="-1092.1876"
     inkscape:window-width="1920"
     inkscape:window-height="991"
     inkscape:window-x="-9"
     inkscape:window-y="-9"
     inkscape:window-maximized="1"
     inkscape:current-layer="layer1"><sodipodi:guide
       position="712.25172,16.262673"
       orientation="0,-1"
       id="guide7"
       inkscape:locked="false" /><sodipodi:guide
       position="712.25172,-29.750697"
       orientation="0,-1"
       id="guide8"
       inkscape:locked="false" /><sodipodi:guide
       position="1558.1953,10.325303"
       orientation="0,-1"
       id="guide30"
       inkscape:locked="false" /><sodipodi:guide
       position="3133.669,-21.573317"
       orientation="0,-1"
       id="guide1"
       inkscape:locked="false" /><sodipodi:guide
       position="2569.1713,25.297443"
       orientation="0,-1"
       id="guide67"
       inkscape:locked="false" /><sodipodi:guide
       position="606.62443,96.190963"
       orientation="0,-1"
       id="guide6"
       inkscape:locked="false" /><sodipodi:guide
       position="606.62443,142.20434"
       orientation="0,-1"
       id="guide9"
       inkscape:locked="false" /><sodipodi:guide
       position="244.33587,250.98701"
       orientation="0,-1"
       id="guide10"
       inkscape:locked="false" /><sodipodi:guide
       position="951.24134,297.00037"
       orientation="0,-1"
       id="guide11"
       inkscape:locked="false" /></sodipodi:namedview><defs
     id="defs2"><style
       type="text/css"
       id="style1-2">&#10;   <![CDATA[
    .fil0 {fill:none}
    .fil2 {fill:black;fill-rule:nonzero}
    .fil3 {fill:#ACD4F7;fill-rule:nonzero}
    .fil4 {fill:#DEDEDE;fill-rule:nonzero}
    .fil1 {fill:white;fill-rule:nonzero}
   ]]>&#10;  </style><radialGradient
       id="b-1"
       cx="509.17532"
       cy="630.17261"
       fx="509.17532"
       fy="630.17261"
       r="368.53986"
       gradientTransform="scale(1.4010924,0.71372882)"
       gradientUnits="userSpaceOnUse"><stop
         offset="0"
         style="stop-color:#f2f2f2;stop-opacity:1"
         id="stop1-60" /><stop
         offset=".58"
         style="stop-color:#eee;stop-opacity:1"
         id="stop2-19" /><stop
         offset="1"
         style="stop-color:#e6e6e6;stop-opacity:1"
         id="stop3-2" /></radialGradient><linearGradient
       id="a-8"
       gradientUnits="userSpaceOnUse"
       x1="2.5899999"
       y1="10.16"
       x2="15.41"
       y2="10.16"
       gradientTransform="scale(7.11111)"><stop
         offset="0"
         style="stop-color:#005ba1;stop-opacity:1"
         id="stop4-1" /><stop
         offset=".07"
         style="stop-color:#0060a9;stop-opacity:1"
         id="stop5-8" /><stop
         offset=".36"
         style="stop-color:#0071c8;stop-opacity:1"
         id="stop6-8" /><stop
         offset=".52"
         style="stop-color:#0078d4;stop-opacity:1"
         id="stop7-5" /><stop
         offset=".64"
         style="stop-color:#0074cd;stop-opacity:1"
         id="stop8-0" /><stop
         offset=".82"
         style="stop-color:#006abb;stop-opacity:1"
         id="stop9-4" /><stop
         offset="1"
         style="stop-color:#005ba1;stop-opacity:1"
         id="stop10-9" /></linearGradient></defs><g
     inkscape:label="Layer 1"
     inkscape:groupmode="layer"
     id="layer1"
     transform="translate(571.30256,277.78799)"><g
       id="g1523"
       transform="matrix(0.38061874,0,0,0.38061874,-578.31286,-279.1411)"
       style="stroke-width:0.69514"><path
         style="fill:url(#a-8);fill-rule:nonzero;stroke:none;stroke-width:0.69514"
         d="m 64,36.55 c -25.172,0 -45.582,-7.109 -45.582,-16.495 v 87.89 c 0,9.032 20.055,16.356 44.941,16.5 H 64 c 25.172,0 45.582,-7.113 45.582,-16.5 v -87.89 c 0,9.172 -20.41,16.496 -45.582,16.496 z m 0,0"
         id="path10-9" /><path
         style="fill:#e8e8e8;fill-opacity:1;fill-rule:nonzero;stroke:none;stroke-width:0.69514"
         d="m 109.582,20.055 c 0,9.172 -20.41,16.496 -45.582,16.496 -25.172,0 -45.582,-7.11 -45.582,-16.496 0,-9.387 20.41,-16.5 45.582,-16.5 25.172,0 45.582,7.113 45.582,16.5"
         id="path11-7" /><path
         style="fill:#50e6ff;fill-opacity:1;fill-rule:nonzero;stroke:none;stroke-width:0.69514"
         d="M 98.988,18.703 C 98.988,24.535 83.27,29.227 64,29.227 44.73,29.227 29.012,24.535 29.012,18.703 29.012,12.871 44.73,8.25 64,8.25 c 19.27,0 34.988,4.691 34.988,10.453"
         id="path12-0" /><path
         style="fill:#198ab3;fill-opacity:1;fill-rule:nonzero;stroke:none;stroke-width:0.69514"
         d="M 64,21.332 A 82.193,82.193 0 0 0 36.336,25.387 81.213,81.213 0 0 0 64,29.227 79.334,79.334 0 0 0 91.664,25.102 84.332,84.332 0 0 0 64,21.332 Z m 0,0"
         id="path13-1" /><path
         style="fill:url(#b-1);fill-rule:nonzero;stroke:none;stroke-width:0.69514"
         d="M 91.734,81.066 V 56.891 h -6.402 v 29.367 h 17.496 V 81.066 Z M 40.961,69.191 a 13.064,13.064 0 0 1 -3.629,-2.203 3.13,3.13 0 0 1 -0.852,-2.277 2.418,2.418 0 0 1 1.067,-2.133 4.847,4.847 0 0 1 2.988,-0.855 11.533,11.533 0 0 1 7.11,2.062 v -6.113 a 18.236,18.236 0 0 0 -7.11,-1.137 11.67,11.67 0 0 0 -7.754,2.414 7.68,7.68 0 0 0 -2.984,6.332 c 0,3.625 2.273,6.469 7.11,8.602 1.57,0.668 3.05,1.527 4.41,2.562 a 2.982,2.982 0 0 1 1.066,2.274 c 0,0.879 -0.426,1.699 -1.137,2.207 a 5.786,5.786 0 0 1 -3.203,0.781 11.801,11.801 0 0 1 -7.75,-2.988 v 6.613 a 15.411,15.411 0 0 0 7.61,1.707 c 2.98,0.176 5.933,-0.648 8.39,-2.348 a 7.681,7.681 0 0 0 2.348,-6.468 7.458,7.458 0 0 0 -1.778,-4.977 17.225,17.225 0 0 0 -5.902,-4.055 z M 78.223,80.496 A 16.634,16.634 0 0 0 80.57,71.539 16.509,16.509 0 0 0 78.223,64 12.87,12.87 0 0 0 73.246,58.668 14.228,14.228 0 0 0 66.133,56.816 15.015,15.015 0 0 0 58.453,58.738 13.217,13.217 0 0 0 53.262,64 a 17.48,17.48 0 0 0 -1.848,8.105 16.06,16.06 0 0 0 1.707,7.114 12.526,12.526 0 0 0 4.906,5.261 14.679,14.679 0 0 0 7.11,2.133 l 6.117,7.11 h 8.605 l -8.75,-7.82 a 12.736,12.736 0 0 0 7.114,-5.407 z m -7.114,-1.777 a 6.673,6.673 0 0 1 -5.402,2.488 6.538,6.538 0 0 1 -5.406,-2.559 10.842,10.842 0 0 1 -2.063,-7.109 10.903,10.903 0 0 1 2.063,-7.113 7.104,7.104 0 0 1 5.547,-2.63 6.181,6.181 0 0 1 5.336,2.63 11.533,11.533 0 0 1 1.918,7.113 10.353,10.353 0 0 1 -1.993,7.18 z m 0,0"
         id="path14-00" /></g></g><style
     type="text/css"
     id="style1">&#10;	.st0{fill:#76C2AF;}&#10;	.st1{opacity:0.2;}&#10;	.st2{fill:#231F20;}&#10;	.st3{fill:#FFFFFF;}&#10;</style><style
     type="text/css"
     id="style1-1">&#10;	.st0{fill:#C75C5C;}&#10;	.st1{opacity:0.2;}&#10;	.st2{fill:#231F20;}&#10;	.st3{fill:#E0995E;}&#10;	.st4{fill:#F5CF87;}&#10;	.st5{fill:#4F5D73;}&#10;</style><style
     type="text/css"
     id="style1-9">	.st0{clip-path:url(#SVGID_2_);fill:#E30613;}	.st1{clip-path:url(#SVGID_2_);}</style></svg>
