<?xml version="1.0" encoding="UTF-8" standalone="no"?>
<!-- Created with Inkscape (http://www.inkscape.org/) -->

<svg
   width="46.013mm"
   height="46.012985mm"
   viewBox="0 0 46.013 46.012985"
   version="1.1"
   id="svg5"
   xml:space="preserve"
   inkscape:version="1.3 (0e150ed6c4, 2023-07-21)"
   sodipodi:docname="_ICONsQueFiz.svg"
   xmlns:inkscape="http://www.inkscape.org/namespaces/inkscape"
   xmlns:sodipodi="http://sodipodi.sourceforge.net/DTD/sodipodi-0.dtd"
   xmlns="http://www.w3.org/2000/svg"
   xmlns:svg="http://www.w3.org/2000/svg"><sodipodi:namedview
     id="namedview7"
     pagecolor="#ffffff"
     bordercolor="#999999"
     borderopacity="1"
     inkscape:showpageshadow="0"
     inkscape:pageopacity="0"
     inkscape:pagecheckerboard="0"
     inkscape:deskcolor="#d1d1d1"
     inkscape:document-units="mm"
     showgrid="false"
     showguides="true"
     inkscape:zoom="0.45254831"
     inkscape:cx="-396.64274"
     inkscape:cy="-809.85829"
     inkscape:window-width="1920"
     inkscape:window-height="991"
     inkscape:window-x="-9"
     inkscape:window-y="-9"
     inkscape:window-maximized="1"
     inkscape:current-layer="layer1"><sodipodi:guide
       position="408.04632,16.262673"
       orientation="0,-1"
       id="guide7"
       inkscape:locked="false" /><sodipodi:guide
       position="408.04632,-29.750697"
       orientation="0,-1"
       id="guide8"
       inkscape:locked="false" /><sodipodi:guide
       position="1253.9899,10.325303"
       orientation="0,-1"
       id="guide30"
       inkscape:locked="false" /><sodipodi:guide
       position="2829.4636,-21.573317"
       orientation="0,-1"
       id="guide1"
       inkscape:locked="false" /><sodipodi:guide
       position="2264.9659,25.297443"
       orientation="0,-1"
       id="guide67"
       inkscape:locked="false" /><sodipodi:guide
       position="302.41904,96.190963"
       orientation="0,-1"
       id="guide6"
       inkscape:locked="false" /><sodipodi:guide
       position="302.41904,142.20434"
       orientation="0,-1"
       id="guide9"
       inkscape:locked="false" /><sodipodi:guide
       position="377.16384,250.98701"
       orientation="0,-1"
       id="guide10"
       inkscape:locked="false" /><sodipodi:guide
       position="647.03594,297.00037"
       orientation="0,-1"
       id="guide11"
       inkscape:locked="false" /></sodipodi:namedview><defs
     id="defs2"><style
       type="text/css"
       id="style1-2">&#10;   <![CDATA[
    .fil0 {fill:none}
    .fil2 {fill:black;fill-rule:nonzero}
    .fil3 {fill:#ACD4F7;fill-rule:nonzero}
    .fil4 {fill:#DEDEDE;fill-rule:nonzero}
    .fil1 {fill:white;fill-rule:nonzero}
   ]]>&#10;  </style></defs><g
     inkscape:label="Layer 1"
     inkscape:groupmode="layer"
     id="layer1"
     transform="translate(267.09717,277.78799)"><g
       id="g101"><rect
         style="fill:#ffdd55;fill-opacity:1;fill-rule:evenodd;stroke-width:0.765;stroke-linecap:round;-inkscape-stroke:none"
         id="rect99"
         width="46.013"
         height="46.013"
         x="-267.09717"
         y="-277.78799"
         ry="9.2526741" /><path
         fill="#a80030"
         d="m -241.06582,-253.68917 c -0.63903,0.008 0.121,0.32895 0.95529,0.45768 a 8.4955854,8.4955854 0 0 0 0.62605,-0.53876 c -0.51958,0.12686 -1.04815,0.12966 -1.58134,0.0811 m 3.43066,-0.85504 c 0.38034,-0.52516 0.65823,-1.10043 0.7557,-1.69522 -0.0854,0.42365 -0.31533,0.79006 -0.53226,1.17627 -1.19453,0.75229 -0.11228,-0.44656 -6.3e-4,-0.9024 -1.28425,1.61693 -0.17639,0.96953 -0.22281,1.42135 m 1.26662,-3.29512 c 0.0771,-1.15119 -0.22683,-0.78725 -0.32896,-0.34815 0.11883,0.0623 0.21353,0.8114 0.32896,0.34815 m -7.12097,-15.73197 c 0.34103,0.0612 0.73682,0.1083 0.68142,0.18938 0.37322,-0.0815 0.45801,-0.1566 -0.68142,-0.18938 m 0.68142,0.18969 -0.24106,0.0498 0.22436,-0.0197 0.0167,-0.0301 m 10.63673,15.97861 c 0.038,1.0336 -0.30265,1.53523 -0.60932,2.42276 l -0.55269,0.27605 c -0.45182,0.87823 0.044,0.55764 -0.27945,1.25609 -0.70587,0.62727 -2.14177,1.96352 -2.60133,2.08513 -0.33543,-0.007 0.22716,-0.39549 0.30081,-0.54805 -0.94447,0.64925 -0.75786,0.97388 -2.20272,1.36843 l -0.0421,-0.0943 c -3.56375,1.67635 -8.51323,-1.64569 -8.44793,-6.17865 -0.038,0.2881 -0.10795,0.21568 -0.18724,0.33235 -0.18381,-2.33239 1.07725,-4.675 3.20384,-5.63091 2.08019,-1.0302 4.51873,-0.60748 6.00877,0.78107 -0.81821,-1.07228 -2.44752,-2.20861 -4.37823,-2.10216 -1.89111,0.0301 -3.66029,1.23165 -4.25043,2.53632 -0.96922,0.61026 -1.08155,2.35191 -1.50365,2.67002 -0.56787,4.17492 1.06857,5.97814 3.83667,8.1001 0.43541,0.29368 0.12255,0.33825 0.18167,0.56168 -0.91973,-0.43077 -1.76207,-1.08095 -2.45435,-1.87688 0.36703,0.53815 0.76376,1.06114 1.27653,1.47179 -0.86741,-0.29367 -2.02571,-2.10123 -2.36427,-2.17489 1.49531,2.67653 6.06509,4.69419 8.45846,3.69341 -1.10755,0.0406 -2.51405,0.0226 -3.75838,-0.43728 -0.52238,-0.2689 -1.23288,-0.82594 -1.10602,-0.93054 3.26573,1.2205 6.63977,0.92466 9.46513,-1.34088 0.71887,-0.56013 1.50428,-1.51233 1.73112,-1.52564 -0.34196,0.51402 0.0582,0.24757 -0.20425,0.70124 0.71671,-1.15522 -0.31101,-0.47069 0.74085,-1.99539 l 0.38867,0.53505 c -0.14452,-0.9587 1.1908,-2.12321 1.05525,-3.63986 0.30637,-0.46388 0.34166,0.49884 0.0167,1.56618 0.45088,-1.18369 0.11882,-1.37401 0.23487,-2.35097 0.12503,0.32863 0.28935,0.6771 0.37383,1.0237 -0.29398,-1.14377 0.30173,-1.92671 0.44873,-2.59111 -0.14453,-0.0643 -0.45305,0.50566 -0.52362,-0.84544 0.0108,-0.58675 0.1634,-0.3073 0.2222,-0.45182 -0.11544,-0.0666 -0.41746,-0.51618 -0.60159,-1.37895 0.13339,-0.2027 0.35619,0.52547 0.53815,0.55548 -0.11698,-0.68607 -0.31813,-1.20906 -0.32586,-1.73575 -0.5301,-1.10756 -0.18753,0.14793 -0.61768,-0.47533 -0.56414,-1.75991 0.4682,-0.40848 0.53784,-1.20782 0.85503,1.23876 1.34274,3.15895 1.56648,3.95396 -0.17082,-0.96954 -0.44655,-1.90874 -0.78355,-2.81763 0.25963,0.1096 -0.41838,-1.99478 0.33763,-0.60128 -0.80739,-2.97081 -3.45544,-5.74635 -5.8915,-7.04886 0.2977,0.27264 0.67432,0.61552 0.5394,0.66905 -1.21154,-0.72134 -0.99865,-0.77768 -1.17193,-1.08249 -0.98719,-0.40136 -1.05186,0.0322 -1.70543,9.3e-4 -1.86048,-0.98656 -2.21915,-0.88196 -3.93108,-1.50026 l 0.0781,0.36424 c -1.23288,-0.41065 -1.4362,0.15566 -2.76811,10e-4 -0.0814,-0.0634 0.42675,-0.229 0.84483,-0.28997 -1.19143,0.15721 -1.13572,-0.23488 -2.30177,0.0433 0.28749,-0.20146 0.59075,-0.33485 0.89743,-0.50659 -0.97139,0.0591 -2.3194,0.56569 -1.90348,0.1049 -1.58474,0.70741 -4.39988,1.69986 -5.97938,3.18123 l -0.0498,-0.33205 c -0.72383,0.86928 -3.15649,2.59543 -3.35021,3.72031 l -0.19341,0.0451 c -0.37692,0.63749 -0.62015,1.36038 -0.91909,2.01675 -0.49267,0.83957 -0.72228,0.32308 -0.65204,0.45459 -0.96922,1.96475 -1.45043,3.61541 -1.86604,4.96899 0.29647,0.44314 0.007,2.66568 0.11914,4.44507 -0.48647,8.78679 6.1669,17.31795 13.43983,19.28828 1.06608,0.38065 2.65113,0.36641 3.99945,0.40571 -1.59094,-0.45521 -1.79671,-0.24077 -3.34618,-0.78138 -1.11839,-0.52639 -1.36316,-1.12769 -2.15507,-1.81468 l 0.31379,0.55393 c -1.55318,-0.54928 -0.90301,-0.68018 -2.16684,-1.08031 l 0.33515,-0.43697 c -0.5035,-0.038 -1.33347,-0.84792 -1.5603,-1.29693 l -0.55053,0.0216 c -0.66162,-0.81634 -1.01411,-1.40431 -0.98841,-1.86015 l -0.17794,0.31688 c -0.20177,-0.34627 -2.4339,-3.06147 -1.27591,-2.42925 -0.21538,-0.19713 -0.50132,-0.32029 -0.8114,-0.88382 l 0.23581,-0.26954 c -0.55764,-0.7167 -1.02586,-1.63611 -0.99027,-1.94216 0.29709,0.40168 0.50349,0.47657 0.70773,0.54558 -1.40741,-3.49225 -1.48633,-0.19249 -2.55242,-3.55476 l 0.2256,-0.0183 c -0.17298,-0.26058 -0.27789,-0.54342 -0.41684,-0.8207 l 0.0978,-0.9782 c -1.01318,-1.17161 -0.28347,-4.98166 -0.1371,-7.07146 0.10151,-0.84976 0.84576,-1.75433 1.41206,-3.17256 l -0.34473,-0.0594 c 0.65944,-1.15026 3.76518,-4.6196 5.20355,-4.44106 0.6966,-0.87546 -0.13802,-0.003 -0.27418,-0.22373 1.53028,-1.58414 2.01148,-1.11931 3.04447,-1.40402 1.11404,-0.66131 -0.95592,0.25778 -0.42798,-0.25221 1.92575,-0.49173 1.36471,-1.11807 3.87691,-1.36781 0.26519,0.15071 -0.61491,0.23273 -0.83585,0.42861 1.60453,-0.78481 5.0776,-0.60623 7.33325,0.43572 2.6174,1.22297 5.55819,4.8393 5.67425,8.2412 l 0.13212,0.0353 c -0.0668,1.35233 0.20704,2.91634 -0.26767,4.35285 l 0.32276,-0.68112 m -15.87063,4.59114 -0.0897,0.4481 c 0.41993,0.57094 0.75353,1.18925 1.28952,1.63487 -0.38558,-0.75323 -0.67246,-1.06454 -1.19978,-2.08297 m 0.99275,-0.0389 c -0.22218,-0.24601 -0.35403,-0.54186 -0.50133,-0.83676 0.14112,0.51834 0.42953,0.96365 0.69784,1.41669 l -0.19651,-0.57993 m 17.57265,-3.81965 -0.094,0.2358 a 11.363344,11.363344 0 0 1 -1.11373,3.55477 11.173646,11.173646 0 0 0 1.20782,-3.79057 m -13.88638,-17.20708 c 0.43201,-0.15874 1.06238,-0.087 1.5207,-0.19093 -0.59727,0.0501 -1.19205,0.08 -1.7794,0.15566 l 0.2587,0.0353 m -15.17184,8.06728 c 0.0997,0.92188 -0.69382,1.27962 0.17546,0.67184 0.46604,-1.04906 -0.18196,-0.28934 -0.17546,-0.67184 m -1.02154,4.26683 c 0.19992,-0.6146 0.23643,-0.98409 0.31287,-1.33935 -0.55331,0.70712 -0.25468,0.85814 -0.31287,1.33935"
         id="path1-1-4"
         style="stroke-width:0.264583" /></g></g><style
     type="text/css"
     id="style1">&#10;	.st0{fill:#76C2AF;}&#10;	.st1{opacity:0.2;}&#10;	.st2{fill:#231F20;}&#10;	.st3{fill:#FFFFFF;}&#10;</style><style
     type="text/css"
     id="style1-1">&#10;	.st0{fill:#C75C5C;}&#10;	.st1{opacity:0.2;}&#10;	.st2{fill:#231F20;}&#10;	.st3{fill:#E0995E;}&#10;	.st4{fill:#F5CF87;}&#10;	.st5{fill:#4F5D73;}&#10;</style><style
     type="text/css"
     id="style1-9">	.st0{clip-path:url(#SVGID_2_);fill:#E30613;}	.st1{clip-path:url(#SVGID_2_);}</style></svg>
