<?xml version="1.0" encoding="UTF-8" standalone="no"?>
<!-- Created with Inkscape (http://www.inkscape.org/) -->

<svg
   width="46.542171mm"
   height="47.07132mm"
   viewBox="0 0 46.542171 47.07132"
   version="1.1"
   id="svg5"
   xml:space="preserve"
   inkscape:version="1.3 (0e150ed6c4, 2023-07-21)"
   sodipodi:docname="_ICONsQueFiz.svg"
   xmlns:inkscape="http://www.inkscape.org/namespaces/inkscape"
   xmlns:sodipodi="http://sodipodi.sourceforge.net/DTD/sodipodi-0.dtd"
   xmlns="http://www.w3.org/2000/svg"
   xmlns:svg="http://www.w3.org/2000/svg"><sodipodi:namedview
     id="namedview7"
     pagecolor="#ffffff"
     bordercolor="#999999"
     borderopacity="1"
     inkscape:showpageshadow="0"
     inkscape:pageopacity="0"
     inkscape:pagecheckerboard="0"
     inkscape:deskcolor="#d1d1d1"
     inkscape:document-units="mm"
     showgrid="false"
     showguides="true"
     inkscape:zoom="0.63999994"
     inkscape:cx="-157.81251"
     inkscape:cy="-1088.2813"
     inkscape:window-width="1920"
     inkscape:window-height="991"
     inkscape:window-x="-9"
     inkscape:window-y="-9"
     inkscape:window-maximized="1"
     inkscape:current-layer="layer1"><sodipodi:guide
       position="218.46604,-34.181814"
       orientation="0,-1"
       id="guide7"
       inkscape:locked="false" /><sodipodi:guide
       position="218.46604,-80.195184"
       orientation="0,-1"
       id="guide8"
       inkscape:locked="false" /><sodipodi:guide
       position="1064.4096,-40.119184"
       orientation="0,-1"
       id="guide30"
       inkscape:locked="false" /><sodipodi:guide
       position="2639.8833,-72.017804"
       orientation="0,-1"
       id="guide1"
       inkscape:locked="false" /><sodipodi:guide
       position="2075.3856,-25.147044"
       orientation="0,-1"
       id="guide67"
       inkscape:locked="false" /><sodipodi:guide
       position="112.83876,45.746476"
       orientation="0,-1"
       id="guide6"
       inkscape:locked="false" /><sodipodi:guide
       position="112.83876,91.759856"
       orientation="0,-1"
       id="guide9"
       inkscape:locked="false" /><sodipodi:guide
       position="-249.44981,200.54253"
       orientation="0,-1"
       id="guide10"
       inkscape:locked="false" /><sodipodi:guide
       position="457.45566,246.55589"
       orientation="0,-1"
       id="guide11"
       inkscape:locked="false" /><sodipodi:guide
       position="120.63499,311.98241"
       orientation="0,-1"
       id="guide713"
       inkscape:locked="false" /></sodipodi:namedview><defs
     id="defs2"><style
       type="text/css"
       id="style1-2">&#10;   <![CDATA[
    .fil0 {fill:none}
    .fil2 {fill:black;fill-rule:nonzero}
    .fil3 {fill:#ACD4F7;fill-rule:nonzero}
    .fil4 {fill:#DEDEDE;fill-rule:nonzero}
    .fil1 {fill:white;fill-rule:nonzero}
   ]]>&#10;  </style></defs><g
     inkscape:label="Layer 1"
     inkscape:groupmode="layer"
     id="layer1"
     transform="translate(77.516893,328.23247)"><g
       id="g788"
       transform="translate(-31.832685,6.6145839)"><circle
         style="fill:#333333;fill-opacity:1;fill-rule:evenodd;stroke:none;stroke-width:0.665001;stroke-linecap:round"
         id="circle777"
         cx="-22.148537"
         cy="-310.78226"
         r="23.0065"
         inkscape:export-filename="img-m2.svg"
         inkscape:export-xdpi="96"
         inkscape:export-ydpi="96" /><circle
         style="fill:#edc9ed;fill-opacity:1;fill-rule:evenodd;stroke:none;stroke-width:0.665001;stroke-linecap:round"
         id="circle778"
         cx="-22.677704"
         cy="-311.84058"
         r="23.0065"
         inkscape:export-filename="img-m2.svg"
         inkscape:export-xdpi="96"
         inkscape:export-ydpi="96" /><g
         id="g787"
         style="fill:#732573;fill-opacity:1"
         transform="translate(0.52916667,0.52916663)"><path
           style="font-size:18.0626px;line-height:1.25;font-family:Impact;-inkscape-font-specification:Impact;fill:#732573;fill-opacity:1;stroke-width:0.264583"
           d="m -11.811582,-322.70671 v 21.73225 h -6.156631 v -14.67162 l -2.45931,14.67162 h -4.366528 l -2.593142,-14.33603 v 14.33603 h -6.156631 v -21.73225 h 9.117838 q 0.401512,1.95981 0.853232,4.6176 l 0.970333,5.53037 1.606092,-10.14797 z"
           id="path784"
           aria-label="M" /><path
           style="font-size:30.0948px;line-height:1.25;font-family:'Old English Text MT';-inkscape-font-specification:'Old English Text MT';fill:#732573;fill-opacity:1;stroke-width:0.264583"
           d="m -32.321963,-326.17122 v 0.71614 q -2.073452,0.30236 -3.068715,1.1299 -0.974521,0.81162 -0.974521,1.86195 0,1.06624 0.497624,2.65765 0.497639,1.5755 0.497639,2.75314 0,1.08216 -0.850126,2.21205 -0.829383,1.11399 -2.405196,1.9097 -1.098945,0.557 -3.504141,1.05032 2.571076,0.62066 3.732218,1.2254 1.534357,0.81161 2.301529,1.90968 0.767186,1.09809 0.767186,2.08475 0,0.95485 -0.518367,2.54626 -0.497638,1.59141 -0.497638,2.76905 0,1.12991 0.933065,1.94152 0.953794,0.82753 3.089443,1.14582 v 0.74796 h -0.725702 q -3.670021,0 -6.075231,-1.9256 -1.762435,-1.41636 -1.762435,-3.11917 0,-1.09807 0.642776,-3.00776 0.476896,-1.41636 0.476896,-2.53035 0,-1.25721 -1.036732,-2.13249 -1.036733,-0.89118 -3.027246,-1.14581 v -0.97075 q 1.990513,-0.25464 3.027246,-1.17765 1.036732,-0.92302 1.036732,-2.24389 0,-1.08216 -0.456169,-2.43486 -0.642776,-1.89378 -0.642776,-2.88045 0,-1.03441 0.808656,-2.10066 0.808642,-1.06624 2.031982,-1.73464 1.223341,-0.66839 2.674758,-0.97076 1.119672,-0.23871 3.027245,-0.28645 z"
           id="path785"
           aria-label="{" /><path
           style="font-size:30.0948px;line-height:1.25;font-family:'Old English Text MT';-inkscape-font-specification:'Old English Text MT';fill:#732573;fill-opacity:1;stroke-width:0.264583"
           d="m -13.136797,-326.17122 v 0.71614 q 2.073448,0.30236 3.068713,1.1299 0.9745211,0.81162 0.9745211,1.86195 0,1.06624 -0.497624,2.65765 -0.4976411,1.5755 -0.4976411,2.75314 0,1.08216 0.8501321,2.21205 0.829379,1.11399 2.4051947,1.9097 1.0989435,0.557 3.5041387,1.05032 -2.5710727,0.62066 -3.7322151,1.2254 -1.5343603,0.81161 -2.3015333,1.90968 -0.7671801,1.09809 -0.7671801,2.08475 0,0.95485 0.5183601,2.54626 0.497641,1.59141 0.497641,2.76905 0,1.12991 -0.9330661,1.94152 -0.953794,0.82753 -3.089441,1.14582 v 0.74796 h 0.725701 q 3.6700241,0 6.0752354,-1.9256 1.7624291,-1.41636 1.7624291,-3.11917 0,-1.09807 -0.6427743,-3.00776 -0.4768968,-1.41636 -0.4768968,-2.53035 0,-1.25721 1.0367364,-2.13249 1.0367282,-0.89118 3.0272418,-1.14581 v -0.97075 q -1.9905136,-0.25464 -3.0272418,-1.17765 -1.0367364,-0.92302 -1.0367364,-2.24389 0,-1.08216 0.4561692,-2.43486 0.6427743,-1.89378 0.6427743,-2.88045 0,-1.03441 -0.8086518,-2.10066 -0.8086436,-1.06624 -2.031985,-1.73464 -1.223341,-0.66839 -2.6747591,-0.97076 -1.119671,-0.23871 -3.027242,-0.28645 z"
           id="path787"
           aria-label="{" /></g><g
         id="g784"><path
           style="font-size:18.0626px;line-height:1.25;font-family:Impact;-inkscape-font-specification:Impact;fill:#c449c4;fill-opacity:1;stroke-width:0.264583"
           d="m -11.811582,-322.70671 v 21.73225 h -6.156631 v -14.67162 l -2.45931,14.67162 h -4.366528 l -2.593142,-14.33603 v 14.33603 h -6.156631 v -21.73225 h 9.117838 q 0.401512,1.95981 0.853232,4.6176 l 0.970333,5.53037 1.606092,-10.14797 z"
           id="path778"
           aria-label="M" /><path
           style="font-size:30.0948px;line-height:1.25;font-family:'Old English Text MT';-inkscape-font-specification:'Old English Text MT';fill:#c449c4;stroke-width:0.264583"
           d="m -32.321963,-326.17122 v 0.71614 q -2.073452,0.30236 -3.068715,1.1299 -0.974521,0.81162 -0.974521,1.86195 0,1.06624 0.497624,2.65765 0.497639,1.5755 0.497639,2.75314 0,1.08216 -0.850126,2.21205 -0.829383,1.11399 -2.405196,1.9097 -1.098945,0.557 -3.504141,1.05032 2.571076,0.62066 3.732218,1.2254 1.534357,0.81161 2.301529,1.90968 0.767186,1.09809 0.767186,2.08475 0,0.95485 -0.518367,2.54626 -0.497638,1.59141 -0.497638,2.76905 0,1.12991 0.933065,1.94152 0.953794,0.82753 3.089443,1.14582 v 0.74796 h -0.725702 q -3.670021,0 -6.075231,-1.9256 -1.762435,-1.41636 -1.762435,-3.11917 0,-1.09807 0.642776,-3.00776 0.476896,-1.41636 0.476896,-2.53035 0,-1.25721 -1.036732,-2.13249 -1.036733,-0.89118 -3.027246,-1.14581 v -0.97075 q 1.990513,-0.25464 3.027246,-1.17765 1.036732,-0.92302 1.036732,-2.24389 0,-1.08216 -0.456169,-2.43486 -0.642776,-1.89378 -0.642776,-2.88045 0,-1.03441 0.808656,-2.10066 0.808642,-1.06624 2.031982,-1.73464 1.223341,-0.66839 2.674758,-0.97076 1.119672,-0.23871 3.027245,-0.28645 z"
           id="path780"
           aria-label="{" /><path
           style="font-size:30.0948px;line-height:1.25;font-family:'Old English Text MT';-inkscape-font-specification:'Old English Text MT';fill:#c449c4;stroke-width:0.264583"
           d="m -13.136797,-326.17122 v 0.71614 q 2.073448,0.30236 3.068713,1.1299 0.9745211,0.81162 0.9745211,1.86195 0,1.06624 -0.497624,2.65765 -0.4976411,1.5755 -0.4976411,2.75314 0,1.08216 0.8501321,2.21205 0.829379,1.11399 2.4051947,1.9097 1.0989435,0.557 3.5041387,1.05032 -2.5710727,0.62066 -3.7322151,1.2254 -1.5343603,0.81161 -2.3015333,1.90968 -0.7671801,1.09809 -0.7671801,2.08475 0,0.95485 0.5183601,2.54626 0.497641,1.59141 0.497641,2.76905 0,1.12991 -0.9330661,1.94152 -0.953794,0.82753 -3.089441,1.14582 v 0.74796 h 0.725701 q 3.6700241,0 6.0752354,-1.9256 1.7624291,-1.41636 1.7624291,-3.11917 0,-1.09807 -0.6427743,-3.00776 -0.4768968,-1.41636 -0.4768968,-2.53035 0,-1.25721 1.0367364,-2.13249 1.0367282,-0.89118 3.0272418,-1.14581 v -0.97075 q -1.9905136,-0.25464 -3.0272418,-1.17765 -1.0367364,-0.92302 -1.0367364,-2.24389 0,-1.08216 0.4561692,-2.43486 0.6427743,-1.89378 0.6427743,-2.88045 0,-1.03441 -0.8086518,-2.10066 -0.8086436,-1.06624 -2.031985,-1.73464 -1.223341,-0.66839 -2.6747591,-0.97076 -1.119671,-0.23871 -3.027242,-0.28645 z"
           id="path781"
           aria-label="{" /></g></g></g><style
     type="text/css"
     id="style1">&#10;	.st0{fill:#76C2AF;}&#10;	.st1{opacity:0.2;}&#10;	.st2{fill:#231F20;}&#10;	.st3{fill:#FFFFFF;}&#10;</style><style
     type="text/css"
     id="style1-1">&#10;	.st0{fill:#C75C5C;}&#10;	.st1{opacity:0.2;}&#10;	.st2{fill:#231F20;}&#10;	.st3{fill:#E0995E;}&#10;	.st4{fill:#F5CF87;}&#10;	.st5{fill:#4F5D73;}&#10;</style><style
     type="text/css"
     id="style1-9">	.st0{clip-path:url(#SVGID_2_);fill:#E30613;}	.st1{clip-path:url(#SVGID_2_);}</style></svg>
