<?xml version="1.0" encoding="UTF-8" standalone="no"?>
<!-- Created with Inkscape (http://www.inkscape.org/) -->

<svg
   width="137.34309mm"
   height="137.34306mm"
   viewBox="0 0 137.34309 137.34306"
   version="1.1"
   id="svg1"
   inkscape:version="1.3 (0e150ed6c4, 2023-07-21)"
   sodipodi:docname="drawing.svg"
   xml:space="preserve"
   xmlns:inkscape="http://www.inkscape.org/namespaces/inkscape"
   xmlns:sodipodi="http://sodipodi.sourceforge.net/DTD/sodipodi-0.dtd"
   xmlns="http://www.w3.org/2000/svg"
   xmlns:svg="http://www.w3.org/2000/svg"><sodipodi:namedview
     id="namedview1"
     pagecolor="#ffffff"
     bordercolor="#999999"
     borderopacity="1"
     inkscape:showpageshadow="2"
     inkscape:pageopacity="0"
     inkscape:pagecheckerboard="0"
     inkscape:deskcolor="#d1d1d1"
     inkscape:document-units="mm"
     inkscape:zoom="0.1157493"
     inkscape:cx="1909.2988"
     inkscape:cy="-876.89513"
     inkscape:window-width="1920"
     inkscape:window-height="991"
     inkscape:window-x="-9"
     inkscape:window-y="-9"
     inkscape:window-maximized="1"
     inkscape:current-layer="layer1" /><defs
     id="defs1" /><g
     inkscape:label="Layer 1"
     inkscape:groupmode="layer"
     id="layer1"
     transform="translate(-592.19282,525.75554)"><g
       id="g86"><rect
         style="fill:#e44d26;fill-opacity:1;fill-rule:evenodd;stroke-width:0.765;stroke-linecap:round;-inkscape-stroke:none"
         id="rect31"
         width="137.34306"
         height="137.34306"
         x="592.19281"
         y="-525.75555"
         ry="27.618076" /><g
         id="g74"
         transform="translate(599.51018,-518.4382)"
         style="fill:#16502d;stroke-width:0.264583"><path
           fill="#e44d26"
           d="M 19.037,113.876 9.032,1.661 h 109.936 l -10.016,112.198 -45.019,12.48 z"
           id="path71"
           style="fill:#16502d;stroke-width:0.264583" /><path
           fill="#f16529"
           d="m 64,116.8 36.378,-10.086 8.559,-95.878 H 64 Z"
           id="path72"
           style="fill:#16502d;stroke-width:0.264583" /><path
           fill="#ebebeb"
           d="M 64,52.455 H 45.788 L 44.53,38.361 H 64 V 24.599 H 29.489 l 0.33,3.692 3.382,37.927 H 64 Z M 64,88.198 63.939,88.215 48.612,84.075 47.633,73.1 H 33.816 l 1.928,21.609 28.193,7.826 0.063,-0.017 z"
           id="path73"
           style="fill:#16502d;stroke-width:0.264583" /><path
           fill="#ffffff"
           d="m 63.952,52.455 v 13.763 h 16.947 l -1.597,17.849 -15.35,4.143 v 14.319 l 28.215,-7.82 0.207,-2.325 3.234,-36.233 0.335,-3.696 h -3.708 z m 0,-27.856 v 13.762 h 33.244 l 0.276,-3.092 0.628,-6.978 0.329,-3.692 z"
           id="path74"
           style="fill:#16502d;stroke-width:0.264583" /></g><g
         id="g27"
         transform="translate(596.86433,-521.08405)"
         style="stroke-width:0.264583"><path
           fill="#e44d26"
           d="M 19.037,113.876 9.032,1.661 h 109.936 l -10.016,112.198 -45.019,12.48 z"
           id="path1-29"
           style="stroke-width:0.264583" /><path
           fill="#f16529"
           d="m 64,116.8 36.378,-10.086 8.559,-95.878 H 64 Z"
           id="path2-5"
           style="stroke-width:0.264583" /><path
           fill="#ebebeb"
           d="M 64,52.455 H 45.788 L 44.53,38.361 H 64 V 24.599 H 29.489 l 0.33,3.692 3.382,37.927 H 64 Z M 64,88.198 63.939,88.215 48.612,84.075 47.633,73.1 H 33.816 l 1.928,21.609 28.193,7.826 0.063,-0.017 z"
           id="path3-3"
           style="stroke-width:0.264583" /><path
           fill="#ffffff"
           d="m 63.952,52.455 v 13.763 h 16.947 l -1.597,17.849 -15.35,4.143 v 14.319 l 28.215,-7.82 0.207,-2.325 3.234,-36.233 0.335,-3.696 h -3.708 z m 0,-27.856 v 13.762 h 33.244 l 0.276,-3.092 0.628,-6.978 0.329,-3.692 z"
           id="path4-37"
           style="stroke-width:0.264583" /></g></g></g></svg>
