<?xml version="1.0" encoding="UTF-8" standalone="no"?>
<!-- Created with Inkscape (http://www.inkscape.org/) -->

<svg
   width="34.698788mm"
   height="46.01302mm"
   viewBox="0 0 34.698788 46.01302"
   version="1.1"
   id="svg5"
   xml:space="preserve"
   inkscape:version="1.3 (0e150ed6c4, 2023-07-21)"
   sodipodi:docname="_ICONsQueFiz.svg"
   xmlns:inkscape="http://www.inkscape.org/namespaces/inkscape"
   xmlns:sodipodi="http://sodipodi.sourceforge.net/DTD/sodipodi-0.dtd"
   xmlns:xlink="http://www.w3.org/1999/xlink"
   xmlns="http://www.w3.org/2000/svg"
   xmlns:svg="http://www.w3.org/2000/svg"><sodipodi:namedview
     id="namedview7"
     pagecolor="#ffffff"
     bordercolor="#999999"
     borderopacity="1"
     inkscape:showpageshadow="0"
     inkscape:pageopacity="0"
     inkscape:pagecheckerboard="0"
     inkscape:deskcolor="#d1d1d1"
     inkscape:document-units="mm"
     showgrid="false"
     showguides="true"
     inkscape:zoom="0.63999997"
     inkscape:cx="-4185.9377"
     inkscape:cy="-758.59378"
     inkscape:window-width="1920"
     inkscape:window-height="991"
     inkscape:window-x="-9"
     inkscape:window-y="-9"
     inkscape:window-maximized="1"
     inkscape:current-layer="layer1"><sodipodi:guide
       position="1315.7172,16.262276"
       orientation="0,-1"
       id="guide7"
       inkscape:locked="false" /><sodipodi:guide
       position="1315.7172,-29.751094"
       orientation="0,-1"
       id="guide8"
       inkscape:locked="false" /><sodipodi:guide
       position="2161.6608,10.324906"
       orientation="0,-1"
       id="guide30"
       inkscape:locked="false" /><sodipodi:guide
       position="3737.1345,-21.573714"
       orientation="0,-1"
       id="guide1"
       inkscape:locked="false" /><sodipodi:guide
       position="3172.6368,25.297046"
       orientation="0,-1"
       id="guide67"
       inkscape:locked="false" /><sodipodi:guide
       position="1210.09,96.190566"
       orientation="0,-1"
       id="guide6"
       inkscape:locked="false" /><sodipodi:guide
       position="1210.09,142.20395"
       orientation="0,-1"
       id="guide9"
       inkscape:locked="false" /><sodipodi:guide
       position="847.8014,250.98662"
       orientation="0,-1"
       id="guide10"
       inkscape:locked="false" /><sodipodi:guide
       position="1554.7069,296.99998"
       orientation="0,-1"
       id="guide11"
       inkscape:locked="false" /><sodipodi:guide
       position="1217.8862,362.4265"
       orientation="0,-1"
       id="guide713"
       inkscape:locked="false" /></sodipodi:namedview><defs
     id="defs2"><style
       type="text/css"
       id="style1-2">&#10;   <![CDATA[
    .fil0 {fill:none}
    .fil2 {fill:black;fill-rule:nonzero}
    .fil3 {fill:#ACD4F7;fill-rule:nonzero}
    .fil4 {fill:#DEDEDE;fill-rule:nonzero}
    .fil1 {fill:white;fill-rule:nonzero}
   ]]>&#10;  </style><linearGradient
       id="a-8"
       gradientUnits="userSpaceOnUse"
       x1="2.5899999"
       y1="10.16"
       x2="15.41"
       y2="10.16"
       gradientTransform="scale(7.11111)"><stop
         offset="0"
         style="stop-color:#005ba1;stop-opacity:1"
         id="stop4-1" /><stop
         offset=".07"
         style="stop-color:#0060a9;stop-opacity:1"
         id="stop5-8" /><stop
         offset=".36"
         style="stop-color:#0071c8;stop-opacity:1"
         id="stop6-8" /><stop
         offset=".52"
         style="stop-color:#0078d4;stop-opacity:1"
         id="stop7-5" /><stop
         offset=".64"
         style="stop-color:#0074cd;stop-opacity:1"
         id="stop8-0" /><stop
         offset=".82"
         style="stop-color:#006abb;stop-opacity:1"
         id="stop9-4" /><stop
         offset="1"
         style="stop-color:#005ba1;stop-opacity:1"
         id="stop10-9" /></linearGradient><linearGradient
       inkscape:collect="always"
       xlink:href="#a-8"
       id="linearGradient36-9"
       gradientUnits="userSpaceOnUse"
       gradientTransform="matrix(1.8814812,0,0,1.8814812,87.72628,73.126109)"
       x1="2.5899999"
       y1="10.16"
       x2="15.41"
       y2="10.16" /></defs><g
     inkscape:label="Layer 1"
     inkscape:groupmode="layer"
     id="layer1"
     transform="translate(1174.7681,277.78838)"><g
       id="g44"
       transform="matrix(1.4385587,0,0,1.4385587,-1307.9777,-384.33766)"
       style="stroke-width:0.69514"><path
         style="fill:url(#linearGradient36-9);fill-rule:nonzero;stroke:none;stroke-width:0.183922"
         d="m 104.65961,82.79663 c -6.66009,0 -12.06023,-1.88092 -12.06023,-4.3643 v 23.25423 c 0,2.38971 5.30621,4.32753 11.89064,4.36563 h 0.16959 c 6.66009,0 12.06024,-1.88199 12.06024,-4.36563 V 78.43233 c 0,2.42676 -5.40015,4.36456 -12.06024,4.36456 z m 0,0"
         id="path32-3" /><path
         style="fill:#e8e8e8;fill-opacity:1;fill-rule:nonzero;stroke:none;stroke-width:0.183922"
         d="m 116.71985,78.43233 c 0,2.42676 -5.40015,4.36456 -12.06024,4.36456 -6.66009,0 -12.06023,-1.88118 -12.06023,-4.36456 0,-2.483646 5.40014,-4.365627 12.06023,-4.365627 6.66009,0 12.06024,1.881981 12.06024,4.365627"
         id="path33-9" /><path
         style="fill:#50e6ff;fill-opacity:1;fill-rule:nonzero;stroke:none;stroke-width:0.183922"
         d="m 113.91685,78.07461 c 0,1.54305 -4.15872,2.78448 -9.25724,2.78448 -5.09852,0 -9.25724,-1.24143 -9.25724,-2.78448 0,-1.543049 4.15872,-2.765689 9.25724,-2.765689 5.09852,0 9.25724,1.241161 9.25724,2.765689"
         id="path34-73" /><path
         style="fill:#198ab3;fill-opacity:1;fill-rule:nonzero;stroke:none;stroke-width:0.183922"
         d="m 104.65961,78.7702 a 21.746898,21.746898 0 0 0 -7.31943,1.07289 21.487606,21.487606 0 0 0 7.31943,1.016 20.990454,20.990454 0 0 0 7.31944,-1.09141 22.312841,22.312841 0 0 0 -7.31944,-0.99748 z m 0,0"
         id="path35-33" /><g
         id="g43"
         transform="translate(-0.34557688)"
         style="stroke-width:0.69514"><path
           style="fill:#000000;fill-opacity:1;stroke-width:0.183922"
           d="m 113.559,98.056043 c -1.1077,-0.02973 -1.95518,0.07313 -2.67932,0.378866 -0.20581,0.0863 -0.53493,0.08807 -0.56811,0.34571 0.11315,0.11941 0.13147,0.297224 0.22113,0.441801 0.17264,0.280638 0.46518,0.654409 0.72585,0.85045 l 0.88191,0.63102 c 0.5413,0.3304 1.14767,0.52004 1.67111,0.85043 0.30743,0.19604 0.61274,0.44182 0.91337,0.66293 0.14802,0.108 0.24748,0.27895 0.44182,0.34698 v -0.0315 c -0.10125,-0.1297 -0.12793,-0.30743 -0.22113,-0.4418 l -0.41033,-0.41035 c -0.40013,-0.53151 -0.90869,-0.99842 -1.45001,-1.38707 -0.43203,-0.309132 -1.39515,-0.727549 -1.57629,-1.229312 l -0.0315,-0.0315 c 0.30574,-0.03311 0.66463,-0.144642 0.94527,-0.219406 0.47497,-0.127927 0.89848,-0.09482 1.38707,-0.221109 l 0.66292,-0.190927 v -0.124553 c -0.24748,-0.254281 -0.42352,-0.589786 -0.69439,-0.820683 -0.70417,-0.599557 -1.47509,-1.200817 -2.26897,-1.70258 -0.44011,-0.277247 -0.98311,-0.456683 -1.45,-0.692691 -0.15605,-0.07955 -0.43203,-0.11941 -0.53664,-0.252577 -0.24407,-0.312105 -0.37716,-0.707572 -0.56638,-1.071556 l -1.1345,-2.395271 c -0.23898,-0.546409 -0.39545,-1.086438 -0.69439,-1.576292 -1.43001,-2.353598 -2.97143,-3.773821 -5.35863,-5.168973 -0.50642,-0.29724 -1.11959,-0.413741 -1.76381,-0.566402 l -1.041359,-0.063 C 98.752787,83.877 98.533366,83.618011 98.33437,83.49341 c -0.790505,-0.50006 -2.818803,-1.586064 -3.405182,-0.157821 -0.36866,0.901891 0.553208,1.782102 0.883618,2.239219 0.230881,0.320607 0.52812,0.679495 0.692674,1.039654 0.109767,0.236007 0.127928,0.473284 0.221126,0.724158 0.229193,0.617846 0.428622,1.28884 0.725845,1.860337 0.149624,0.289155 0.313809,0.593193 0.503467,0.850446 0.116035,0.157821 0.315517,0.229194 0.346985,0.473269 -0.19434,0.27257 -0.205815,0.694378 -0.315518,1.03967 -0.493261,1.552893 -0.307444,3.482979 0.410339,4.634056 0.219405,0.352074 0.737336,1.109388 1.450003,0.818963 0.622943,-0.254281 0.483473,-1.039655 0.661203,-1.734049 0.0416,-0.156052 0.0165,-0.272569 0.0948,-0.377162 v 0.0315 l 0.56809,1.134475 c 0.42012,0.676105 1.16426,1.381974 1.79571,1.85865 0.3287,0.247482 0.58638,0.676104 1.0099,0.820666 v -0.03311 h -0.0315 c -0.0829,-0.126321 -0.21091,-0.179436 -0.31552,-0.282341 -0.24748,-0.242372 -0.52174,-0.543002 -0.72414,-0.820666 -0.5749,-0.77901 -1.08305,-1.632848 -1.54484,-2.52156 -0.22111,-0.423528 -0.41374,-0.892119 -0.59956,-1.323715 -0.0715,-0.166258 -0.0697,-0.418417 -0.2194,-0.503467 -0.20411,0.315513 -0.50474,0.571497 -0.662927,0.945268 -0.252577,0.596166 -0.284044,1.325418 -0.378865,2.079758 l -0.063,0.0315 c -0.43841,-0.106392 -0.593176,-0.5579 -0.755625,-0.945267 -0.413741,-0.980142 -0.489855,-2.559826 -0.126321,-3.687519 0.09305,-0.292128 0.518349,-1.212726 0.34571,-1.481471 -0.08116,-0.269162 -0.35209,-0.425215 -0.503466,-0.631025 a 4.9750811,4.9750811 0 0 1 -0.50474,-0.881895 C 97.556063,87.9281 97.398307,87.071289 97.042825,86.29866 c -0.169247,-0.370364 -0.456699,-0.744134 -0.69269,-1.072841 -0.262365,-0.36355 -0.554911,-0.631025 -0.757313,-1.071556 -0.07152,-0.156053 -0.169248,-0.406926 -0.063,-0.56809 0.03311,-0.107999 0.08293,-0.152677 0.189224,-0.18752 0.182843,-0.141106 0.692674,0.04628 0.881898,0.124553 0.50644,0.210904 0.928682,0.410333 1.356886,0.694378 0.204106,0.136124 0.412042,0.400144 0.661228,0.473284 h 0.284045 c 0.443504,0.10125 0.940156,0.02973 1.355597,0.156053 0.73266,0.222379 1.39048,0.569793 1.98492,0.946955 1.81698,1.145966 3.30227,2.778813 4.31855,4.727189 0.16457,0.313809 0.2343,0.612735 0.37888,0.945251 0.29084,0.67101 0.65611,1.361981 0.94526,2.018109 0.28914,0.656112 0.5698,1.315631 0.97672,1.860337 0.21431,0.285748 1.04308,0.438394 1.41854,0.597853 0.26407,0.111375 0.6961,0.22749 0.94527,0.378882 0.47838,0.287436 0.94017,0.629321 1.38877,0.945267 0.22239,0.159428 0.91039,0.505154 0.94527,0.788781 z"
           id="path39-5" /><path
           style="fill:none;stroke:#000000;stroke-width:0.183922px;stroke-linecap:butt;stroke-linejoin:miter;stroke-opacity:1"
           d="m 102.46428,97.253064 c 0,0 3.02811,2.162028 4.81939,2.807646 1.79129,0.64563 5.80867,0.85868 5.80867,0.85868"
           id="path40-60"
           sodipodi:nodetypes="czc" /><path
           id="path41-9"
           style="fill:#000000;fill-opacity:1;fill-rule:evenodd;stroke-width:2.5477;stroke-linecap:round"
           sodipodi:type="inkscape:offset"
           inkscape:radius="0.47726053"
           inkscape:original="M 265.11914 315.04297 C 264.6062 315.04177 263.99645 315.4243 263.75195 315.90039 C 263.45801 316.47273 263.5273 317.03425 264.01758 318.06641 C 264.46267 319.00341 264.89848 319.65942 265.85938 320.83594 C 266.78134 321.96482 268.28454 324.06759 268.85547 325.0293 C 269.53021 326.16589 270.0007 327.37573 271.2168 331.08984 C 272.75032 335.77341 273.71766 337.69948 275.40234 339.42773 C 276.92497 340.98975 276.96563 341.72701 275.70898 345.11523 C 275.09376 346.77399 274.96732 347.17755 274.75781 348.16211 C 274.23575 350.61542 274.18063 354.16765 274.625 356.75391 C 275.02969 359.10928 276.06461 361.85686 276.98828 363.02539 C 277.45847 363.62023 278.36605 364.12346 278.56836 363.90234 C 278.63946 363.82462 278.76047 363.13096 278.85547 362.24219 C 279.3366 357.73948 279.8166 356.09249 281.1543 354.36719 C 281.50029 353.92095 281.96463 353.31053 282.18555 353.01172 C 282.40647 352.71291 282.62648 352.48074 282.67578 352.49414 C 282.86483 352.54543 283.12582 353.01478 283.26758 353.56055 C 283.40958 354.10724 284.3067 356.28361 285.09961 358.00586 C 286.24247 360.48822 289.79085 366.55647 290.53516 367.30078 C 290.80364 367.56925 295.22895 370.53399 297.33398 371.85547 C 301.63495 374.5555 305.5014 376.60844 308.1582 377.60352 C 311.02322 378.6766 316.51297 379.6706 323.20117 380.32617 C 324.2774 380.43166 325.30844 380.53198 325.49219 380.55078 C 326.03004 380.60578 326.38655 380.61798 326.34375 380.58008 C 326.32187 380.56071 325.59475 380.04001 324.72852 379.42188 C 322.60937 377.90966 322.36798 377.69775 321.42383 376.52344 C 320.84103 375.79856 320.46158 375.20249 320.0918 374.43359 C 319.8074 373.84222 319.57422 373.27874 319.57422 373.18164 C 319.57422 372.82695 320.04113 372.52836 321.22461 372.12305 C 324.82632 370.88958 326.49631 370.59603 330.00195 370.58203 C 330.9863 370.57813 331.79297 370.54692 331.79297 370.51172 C 331.79297 370.15241 330.68754 369.18935 329.26367 368.30859 C 328.89617 368.08128 327.90834 367.41225 327.06836 366.82227 C 324.79933 365.22855 323.32303 364.26022 322.64258 363.91797 C 321.91688 363.55295 319.50888 362.66802 317.13672 361.89453 C 314.7602 361.11963 314.38548 360.88503 313.5625 359.6543 C 312.65507 358.29726 312.00652 357.04829 310.75586 354.25977 C 310.15814 352.92705 309.14346 350.74302 308.50195 349.4043 C 307.05028 346.37489 306.73677 345.66195 306.16797 344.10547 C 305.33522 341.82667 303.54342 338.73664 301.29492 335.70117 C 296.70992 329.51142 290.01407 324.09696 283.76758 321.5293 C 281.98692 320.79734 281.21994 320.58489 279.97852 320.48047 C 279.36609 320.42895 278.34873 320.3393 277.71875 320.2793 C 277.08876 320.21933 276.23054 320.14198 275.81055 320.10938 C 274.94341 320.042 274.8665 320.00369 273.6543 318.99805 C 272.63596 318.15324 271.57535 317.50938 269.82031 316.66797 C 267.51774 315.56406 266.01875 315.04497 265.11914 315.04297 z M 278.26172 325.16016 C 278.49235 325.16158 278.75732 325.29681 279.24414 325.66211 C 279.77449 326.06008 279.98646 326.29927 280.2793 326.83008 C 280.61826 327.44439 280.64382 327.54344 280.60352 328.07617 C 280.55114 328.76788 280.25307 329.48124 279.8418 329.90625 C 279.67669 330.07687 279.49671 330.21684 279.44141 330.21484 C 279.38608 330.21293 279.08452 329.65569 278.76953 328.97656 C 278.33422 328.038 278.0507 327.57486 277.59375 327.04688 C 276.82231 326.1555 276.39809 325.53215 276.49609 325.43945 C 276.58898 325.35156 277.81754 325.15716 278.26172 325.16016 z "
           d="m 265.12109,314.56641 c -0.7511,-0.002 -1.44862,0.44472 -1.79297,1.11523 -0.1829,0.35615 -0.26299,0.76355 -0.21093,1.1875 0.0521,0.42395 0.21295,0.86384 0.46875,1.40234 0.45985,0.96808 0.93314,1.67811 1.90429,2.86719 0.89906,1.10084 2.41598,3.22667 2.95508,4.13477 0.64857,1.09249 1.10405,2.2562 2.31836,5.96484 1.53995,4.7032 2.55222,6.73366 4.29688,8.52344 0.7366,0.75565 1.0248,1.19037 1.06054,1.85156 0.0358,0.66119 -0.23556,1.65399 -0.85937,3.33594 -0.61658,1.66243 -0.75858,2.11645 -0.9707,3.11328 -0.54016,2.53835 -0.59456,6.10685 -0.13672,8.77148 0.41719,2.42816 1.41717,5.17029 2.45898,6.48829 0.28713,0.36325 0.66518,0.66105 1.0332,0.86523 0.18402,0.10209 0.364,0.1818 0.5586,0.22266 0.1946,0.0408 0.48344,0.0674 0.71484,-0.18555 0.10546,-0.11528 0.10583,-0.16245 0.125,-0.21484 0.0192,-0.0524 0.0329,-0.10137 0.0469,-0.15625 0.0279,-0.10977 0.0552,-0.24183 0.082,-0.39649 0.0536,-0.30932 0.10787,-0.71143 0.15625,-1.16406 0.47887,-4.48159 0.91972,-5.98006 2.20117,-7.63281 0.34843,-0.44939 0.81085,-1.05921 1.03711,-1.36524 0.0221,-0.0299 0.0387,-0.0441 0.0606,-0.0723 0.0632,0.13654 0.12947,0.27875 0.17578,0.45703 0.0937,0.36089 0.34961,1.00972 0.69336,1.84375 0.34374,0.83403 0.76817,1.81325 1.16797,2.68164 0.58811,1.27742 1.76086,3.41317 2.88867,5.34179 0.5639,0.96432 1.11589,1.87344 1.57617,2.59375 0.46028,0.72032 0.78512,1.21676 1.06641,1.49805 0.11005,0.11005 0.18425,0.15478 0.33984,0.26758 0.15558,0.1128 0.36104,0.25645 0.60547,0.42578 0.48885,0.33866 1.13494,0.77712 1.83789,1.24805 1.4059,0.94186 3.03852,2.01357 4.09961,2.67969 4.31779,2.71058 8.19387,4.77365 10.91015,5.79101 2.9619,1.10936 8.45449,2.09234 15.16407,2.75 1.07644,0.10551 2.11412,0.20671 2.28906,0.22461 0.27599,0.0282 0.50559,0.0469 0.67578,0.0527 0.0851,0.003 0.14868,0.004 0.22852,-0.004 0.0399,-0.004 0.069,0.0111 0.19921,-0.0508 0.0163,-0.008 0.0335,-0.0176 0.0547,-0.0312 0.0212,-0.0136 0.0718,-0.0562 0.0723,-0.0566 4.7e-4,-4.5e-4 0.0798,-0.0991 0.0801,-0.0996 2.8e-4,-4.7e-4 0.0605,-0.15576 0.0605,-0.15625 10e-5,-5e-4 0.002,-0.17722 0.002,-0.17774 -1e-4,-5.2e-4 -0.0466,-0.13813 -0.0469,-0.13867 -2.8e-4,-5.4e-4 -0.0398,-0.0654 -0.0586,-0.0879 -0.0188,-0.0224 -0.0353,-0.039 -0.0508,-0.0527 -0.0483,-0.0428 -0.034,-0.0285 -0.043,-0.0352 -0.009,-0.007 -0.0187,-0.0143 -0.0312,-0.0234 -0.0251,-0.0183 -0.0607,-0.0414 -0.10352,-0.0723 -0.0856,-0.0618 -0.20493,-0.14881 -0.35156,-0.25391 -0.29326,-0.2102 -0.6917,-0.49549 -1.125,-0.80469 -2.11594,-1.50992 -2.27411,-1.64339 -3.21094,-2.80859 -0.56613,-0.70415 -0.91717,-1.25725 -1.27344,-1.99805 -0.13862,-0.28824 -0.26424,-0.57124 -0.35351,-0.78711 -0.0446,-0.10793 -0.0802,-0.20011 -0.10156,-0.26172 -7.7e-4,-0.002 -0.001,-0.004 -0.002,-0.006 -0.004,0.022 -0.0355,0.0183 0.14844,-0.0996 0.20118,-0.12896 0.59006,-0.3008 1.16602,-0.49805 3.58088,-1.22634 5.1454,-1.50173 8.625,-1.51563 0.4967,-0.002 0.94801,-0.0104 1.28125,-0.0234 0.16661,-0.007 0.30284,-0.0143 0.4082,-0.0234 0.0527,-0.005 0.0957,-0.009 0.14648,-0.0176 0.0254,-0.004 0.0487,-0.007 0.10157,-0.0254 0.0264,-0.009 0.0605,-0.0186 0.12304,-0.0625 0.0156,-0.011 0.0524,-0.0427 0.0527,-0.043 2.9e-4,-2.7e-4 0.0643,-0.072 0.0645,-0.0723 2e-4,-2.8e-4 0.0605,-0.11692 0.0605,-0.11719 1e-4,-2.8e-4 0.0273,-0.16184 0.0273,-0.16211 0,-0.33455 -0.14771,-0.48586 -0.30078,-0.67383 -0.15307,-0.18796 -0.35309,-0.38216 -0.59375,-0.5918 -0.48132,-0.41927 -1.12825,-0.89149 -1.85938,-1.34375 -0.33659,-0.20819 -1.33899,-0.88433 -2.17382,-1.4707 -2.2743,-1.59742 -3.72865,-2.55934 -4.48438,-2.93945 -0.82769,-0.41632 -3.18861,-1.27355 -5.57226,-2.05078 -1.1818,-0.38534 -1.84208,-0.63495 -2.26563,-0.90039 -0.42355,-0.26544 -0.65987,-0.55316 -1.06055,-1.15235 -0.89062,-1.3319 -1.52035,-2.54336 -2.76757,-5.32422 -0.60058,-1.33909 -1.6156,-3.52291 -2.25977,-4.86718 -1.45063,-3.02724 -1.74893,-3.70836 -2.31445,-5.25586 -0.86076,-2.35546 -2.67093,-5.46094 -4.93946,-8.52344 -4.63804,-6.26136 -11.37474,-11.71832 -17.72851,-14.33008 -1.7952,-0.73793 -2.65271,-0.97446 -3.93164,-1.08203 -0.61034,-0.0513 -1.62754,-0.14152 -2.25391,-0.20117 -0.63215,-0.0602 -1.48797,-0.13865 -1.91601,-0.17188 -0.42769,-0.0332 -0.5646,-0.0478 -0.76758,-0.15234 -0.20298,-0.1045 -0.51652,-0.34806 -1.1211,-0.84961 -1.05195,-0.8727 -2.1586,-1.54254 -3.93164,-2.39258 -2.32278,-1.1136 -3.82423,-1.66947 -4.90625,-1.67187 z m 13.13672,11.07031 c 0.0463,2.8e-4 0.23367,0.0569 0.69922,0.40625 0.50575,0.37951 0.62922,0.51896 0.9043,1.01758 0.33338,0.60419 0.30444,0.46731 0.26562,0.98047 -0.041,0.54119 -0.29137,1.10974 -0.57226,1.44335 -0.10518,-0.20053 -0.22274,-0.43122 -0.35157,-0.70898 -0.44337,-0.95595 -0.76464,-1.48247 -1.24804,-2.04102 -0.3466,-0.40048 -0.59551,-0.72331 -0.77149,-0.97265 0.0503,-0.009 0.0856,-0.017 0.13868,-0.0254 0.35927,-0.0568 0.78605,-0.10062 0.93554,-0.0996 z"
           transform="matrix(0.26458333,0,0,0.26458333,25.760204,0)" /><path
           style="fill:#b3b3b3;fill-opacity:1;stroke-width:0.183922"
           d="M 99.46846,86.046951"
           id="path43-33" /><path
           style="fill:#006fc4;fill-opacity:1;stroke-width:0.183922"
           d="m 99.46846,86.046951 a 2.2366603,2.2366603 0 0 0 -0.566402,0.063 v 0.0315 h 0.0315 c 0.109767,0.227505 0.304037,0.37377 0.440113,0.568105 l 0.315512,0.661207 0.0315,-0.02973 c 0.196022,-0.137732 0.284047,-0.358873 0.284047,-0.694378 -0.07955,-0.08293 -0.08968,-0.185817 -0.157823,-0.284045 -0.08968,-0.131463 -0.264068,-0.204106 -0.378881,-0.315512 z"
           id="path42-8" /></g></g></g><style
     type="text/css"
     id="style1">&#10;	.st0{fill:#76C2AF;}&#10;	.st1{opacity:0.2;}&#10;	.st2{fill:#231F20;}&#10;	.st3{fill:#FFFFFF;}&#10;</style><style
     type="text/css"
     id="style1-1">&#10;	.st0{fill:#C75C5C;}&#10;	.st1{opacity:0.2;}&#10;	.st2{fill:#231F20;}&#10;	.st3{fill:#E0995E;}&#10;	.st4{fill:#F5CF87;}&#10;	.st5{fill:#4F5D73;}&#10;</style><style
     type="text/css"
     id="style1-9">	.st0{clip-path:url(#SVGID_2_);fill:#E30613;}	.st1{clip-path:url(#SVGID_2_);}</style></svg>
