<?xml version="1.0" encoding="UTF-8" standalone="no"?>
<!-- Created with Inkscape (http://www.inkscape.org/) -->

<svg
   width="137.34306mm"
   height="137.34306mm"
   viewBox="0 0 137.34306 137.34306"
   version="1.1"
   id="svg1"
   inkscape:version="1.3 (0e150ed6c4, 2023-07-21)"
   sodipodi:docname="drawing.svg"
   xml:space="preserve"
   xmlns:inkscape="http://www.inkscape.org/namespaces/inkscape"
   xmlns:sodipodi="http://sodipodi.sourceforge.net/DTD/sodipodi-0.dtd"
   xmlns="http://www.w3.org/2000/svg"
   xmlns:svg="http://www.w3.org/2000/svg"><sodipodi:namedview
     id="namedview1"
     pagecolor="#ffffff"
     bordercolor="#999999"
     borderopacity="1"
     inkscape:showpageshadow="2"
     inkscape:pageopacity="0"
     inkscape:pagecheckerboard="0"
     inkscape:deskcolor="#d1d1d1"
     inkscape:document-units="mm"
     inkscape:zoom="0.1157493"
     inkscape:cx="1909.2988"
     inkscape:cy="-876.89513"
     inkscape:window-width="1920"
     inkscape:window-height="991"
     inkscape:window-x="-9"
     inkscape:window-y="-9"
     inkscape:window-maximized="1"
     inkscape:current-layer="layer1" /><defs
     id="defs1"><linearGradient
       id="python-original-b"
       gradientUnits="userSpaceOnUse"
       x1="209.474"
       y1="1098.811"
       x2="173.62"
       y2="1149.537"
       gradientTransform="matrix(0.14896041,0,0,-0.15028333,638.96153,497.10704)"><stop
         offset="0"
         stop-color="#FFD43B"
         id="stop3-6" /><stop
         offset="1"
         stop-color="#FFE873"
         id="stop4-9" /></linearGradient><linearGradient
       id="python-original-a"
       gradientUnits="userSpaceOnUse"
       x1="70.251999"
       y1="1237.476"
       x2="170.659"
       y2="1151.089"
       gradientTransform="matrix(0.14896041,0,0,-0.15028333,638.96153,497.10704)"><stop
         offset="0"
         stop-color="#5A9FD4"
         id="stop1-6" /><stop
         offset="1"
         stop-color="#306998"
         id="stop2-5" /></linearGradient></defs><g
     inkscape:label="Layer 1"
     inkscape:groupmode="layer"
     id="layer1"
     transform="translate(171.51983,525.75554)"><g
       id="g82"><rect
         style="fill:#fefaeb;fill-opacity:1;fill-rule:evenodd;stroke-width:0.765;stroke-linecap:round;-inkscape-stroke:none"
         id="rect33"
         width="137.34306"
         height="137.34306"
         x="-171.51982"
         y="-525.75555"
         ry="27.618076" /><g
         id="g52"
         transform="matrix(4.55259,0,0,4.55259,-3121.9439,-1930.231)"
         style="fill:#16502d;stroke-width:0.219655"><path
           fill="url(#python-original-a)"
           d="m 663.46353,310.35645 c -1.11707,0.005 -2.18334,0.10028 -3.12208,0.26644 -2.7649,0.48842 -3.26655,1.51077 -3.26655,3.39645 v 2.49 h 6.53336 v 0.82999 h -8.98552 c -1.89865,0 -3.56129,1.14115 -4.08146,3.31285 -0.60007,2.48841 -0.62653,4.04151 0,6.63999 0.46435,1.93436 1.57348,3.31231 3.47239,3.31231 h 2.24658 v -2.98502 c 0,-2.15662 1.86558,-4.05871 4.08146,-4.05871 h 6.52595 c 1.81663,0 3.26655,-1.49596 3.26655,-3.31999 v -6.22115 c 0,-1.77086 -1.49384,-3.10092 -3.26655,-3.39646 -1.12289,-0.18679 -2.28732,-0.27173 -3.40413,-0.2667 z m -3.53324,2.00263 c 0.67468,0 1.22608,0.56013 1.22608,1.2491 0,0.68607 -0.55113,1.2409 -1.22608,1.2409 -0.67734,0 -1.22582,-0.55483 -1.22582,-1.2409 -2.6e-4,-0.68897 0.54848,-1.2491 1.22582,-1.2491 z"
           id="path51"
           style="fill:#16502d;stroke-width:0.058117" /><path
           fill="url(#python-original-b)"
           d="m 670.94886,317.33933 v 2.90143 c 0,2.24895 -1.90712,4.14205 -4.08146,4.14205 h -6.52595 c -1.78753,0 -3.26655,1.53008 -3.26655,3.32025 v 6.22168 c 0,1.77033 1.53935,2.81199 3.26655,3.31973 2.06798,0.60775 4.0513,0.71781 6.52595,0 1.64465,-0.47652 3.26654,-1.43484 3.26654,-3.31973 v -2.49026 h -6.52568 v -0.83026 h 9.79276 c 1.89865,0 2.60667,-1.32424 3.26707,-3.31232 0.6821,-2.04655 0.65273,-4.01479 0,-6.63998 -0.46937,-1.89045 -1.36551,-3.31285 -3.26707,-3.31285 h -2.45216 z m -3.67057,15.75515 c 0.6776,0 1.22608,0.55483 1.22608,1.24142 0,0.68845 -0.54874,1.24857 -1.22608,1.24857 -0.67468,0 -1.22581,-0.56012 -1.22581,-1.24857 0,-0.68659 0.55113,-1.24142 1.22581,-1.24142 z"
           id="path52"
           style="fill:#16502d;stroke-width:0.058117" /></g><g
         id="g29"
         transform="matrix(4.55259,0,0,4.55259,-3124.0607,-1932.3478)"
         style="stroke-width:0.219655"><path
           fill="url(#python-original-a)"
           d="m 663.46353,310.35645 c -1.11707,0.005 -2.18334,0.10028 -3.12208,0.26644 -2.7649,0.48842 -3.26655,1.51077 -3.26655,3.39645 v 2.49 h 6.53336 v 0.82999 h -8.98552 c -1.89865,0 -3.56129,1.14115 -4.08146,3.31285 -0.60007,2.48841 -0.62653,4.04151 0,6.63999 0.46435,1.93436 1.57348,3.31231 3.47239,3.31231 h 2.24658 v -2.98502 c 0,-2.15662 1.86558,-4.05871 4.08146,-4.05871 h 6.52595 c 1.81663,0 3.26655,-1.49596 3.26655,-3.31999 v -6.22115 c 0,-1.77086 -1.49384,-3.10092 -3.26655,-3.39646 -1.12289,-0.18679 -2.28732,-0.27173 -3.40413,-0.2667 z m -3.53324,2.00263 c 0.67468,0 1.22608,0.56013 1.22608,1.2491 0,0.68607 -0.55113,1.2409 -1.22608,1.2409 -0.67734,0 -1.22582,-0.55483 -1.22582,-1.2409 -2.6e-4,-0.68897 0.54848,-1.2491 1.22582,-1.2491 z"
           id="path4-18"
           style="fill:url(#python-original-a);stroke-width:0.058117" /><path
           fill="url(#python-original-b)"
           d="m 670.94886,317.33933 v 2.90143 c 0,2.24895 -1.90712,4.14205 -4.08146,4.14205 h -6.52595 c -1.78753,0 -3.26655,1.53008 -3.26655,3.32025 v 6.22168 c 0,1.77033 1.53935,2.81199 3.26655,3.31973 2.06798,0.60775 4.0513,0.71781 6.52595,0 1.64465,-0.47652 3.26654,-1.43484 3.26654,-3.31973 v -2.49026 h -6.52568 v -0.83026 h 9.79276 c 1.89865,0 2.60667,-1.32424 3.26707,-3.31232 0.6821,-2.04655 0.65273,-4.01479 0,-6.63998 -0.46937,-1.89045 -1.36551,-3.31285 -3.26707,-3.31285 h -2.45216 z m -3.67057,15.75515 c 0.6776,0 1.22608,0.55483 1.22608,1.24142 0,0.68845 -0.54874,1.24857 -1.22608,1.24857 -0.67468,0 -1.22581,-0.56012 -1.22581,-1.24857 0,-0.68659 0.55113,-1.24142 1.22581,-1.24142 z"
           id="path5-0"
           style="fill:url(#python-original-b);stroke-width:0.058117" /></g></g></g></svg>
