<?xml version="1.0" encoding="UTF-8" standalone="no"?>
<!-- Created with Inkscape (http://www.inkscape.org/) -->

<svg
   width="40.261204mm"
   height="46.01302mm"
   viewBox="0 0 40.261204 46.01302"
   version="1.1"
   id="svg5"
   xml:space="preserve"
   inkscape:version="1.3 (0e150ed6c4, 2023-07-21)"
   sodipodi:docname="_ICONsQueFiz.svg"
   xmlns:inkscape="http://www.inkscape.org/namespaces/inkscape"
   xmlns:sodipodi="http://sodipodi.sourceforge.net/DTD/sodipodi-0.dtd"
   xmlns="http://www.w3.org/2000/svg"
   xmlns:svg="http://www.w3.org/2000/svg"><sodipodi:namedview
     id="namedview7"
     pagecolor="#ffffff"
     bordercolor="#999999"
     borderopacity="1"
     inkscape:showpageshadow="0"
     inkscape:pageopacity="0"
     inkscape:pagecheckerboard="0"
     inkscape:deskcolor="#d1d1d1"
     inkscape:document-units="mm"
     showgrid="false"
     showguides="true"
     inkscape:zoom="0.31999998"
     inkscape:cx="-789.06255"
     inkscape:cy="-1092.1876"
     inkscape:window-width="1920"
     inkscape:window-height="991"
     inkscape:window-x="-9"
     inkscape:window-y="-9"
     inkscape:window-maximized="1"
     inkscape:current-layer="layer1"><sodipodi:guide
       position="657.76362,17.6847"
       orientation="0,-1"
       id="guide7"
       inkscape:locked="false" /><sodipodi:guide
       position="657.76362,-28.32867"
       orientation="0,-1"
       id="guide8"
       inkscape:locked="false" /><sodipodi:guide
       position="1503.7072,11.74733"
       orientation="0,-1"
       id="guide30"
       inkscape:locked="false" /><sodipodi:guide
       position="3079.1809,-20.15129"
       orientation="0,-1"
       id="guide1"
       inkscape:locked="false" /><sodipodi:guide
       position="2514.6832,26.71947"
       orientation="0,-1"
       id="guide67"
       inkscape:locked="false" /><sodipodi:guide
       position="552.13633,97.61299"
       orientation="0,-1"
       id="guide6"
       inkscape:locked="false" /><sodipodi:guide
       position="552.13633,143.62637"
       orientation="0,-1"
       id="guide9"
       inkscape:locked="false" /><sodipodi:guide
       position="189.84777,252.40904"
       orientation="0,-1"
       id="guide10"
       inkscape:locked="false" /><sodipodi:guide
       position="896.75324,298.4224"
       orientation="0,-1"
       id="guide11"
       inkscape:locked="false" /></sodipodi:namedview><defs
     id="defs2"><style
       type="text/css"
       id="style1-2">&#10;   <![CDATA[
    .fil0 {fill:none}
    .fil2 {fill:black;fill-rule:nonzero}
    .fil3 {fill:#ACD4F7;fill-rule:nonzero}
    .fil4 {fill:#DEDEDE;fill-rule:nonzero}
    .fil1 {fill:white;fill-rule:nonzero}
   ]]>&#10;  </style></defs><g
     inkscape:label="Layer 1"
     inkscape:groupmode="layer"
     id="layer1"
     transform="translate(516.81447,276.36596)"><g
       id="g1517"
       transform="matrix(1.9171979,0,0,1.9171979,533.45961,342.67591)"
       style="stroke-width:0.521595"><path
         d="m -528.27878,-317.98858 -7.57687,-4.49765 c -0.90435,-0.53684 -2.01904,-0.53684 -2.92339,0 l -7.57687,4.49765 c -0.90408,0.53684 -1.46129,1.52877 -1.46129,2.60245 v 8.9953 c 0,1.07341 0.55721,2.06587 1.46156,2.60271 l 7.57687,4.49685 c 0.45217,0.26856 0.95647,0.40244 1.46156,0.40244 0.50482,0 1.00912,-0.13388 1.46129,-0.40244 l 7.57687,-4.49685 c 0.90435,-0.53684 1.46183,-1.5293 1.46183,-2.60271 v -8.9953 c 0,-1.07368 -0.55748,-2.06561 -1.46156,-2.60245 z"
         id="path1496"
         fill="#fefefe"
         style="fill-rule:evenodd;stroke:none;stroke-width:0.138005" /><path
         d="m -538.51395,-299.75177 -7.57687,-4.49686 c -0.7411,-0.44 -1.20148,-1.26074 -1.20148,-2.14233 v -8.99504 c 0,-0.88159 0.46038,-1.70233 1.20121,-2.14207 l 7.57714,-4.49765 c 0.36327,-0.21564 0.77708,-0.32967 1.19671,-0.32967 0.41936,0 0.83317,0.11403 1.19671,0.32967 l 7.57687,4.49765 c 0.62442,0.37068 1.04564,1.01256 1.16417,1.73249 -0.25135,-0.53631 -0.81809,-0.68209 -1.47849,-0.29633 l -7.16809,4.42754 c -0.89377,0.52255 -1.55284,1.10887 -1.55337,2.18651 v 8.83259 c -5.3e-4,0.64532 0.26008,1.06336 0.6604,1.18454 -0.1315,0.0228 -0.26406,0.0386 -0.3982,0.0386 -0.41963,0 -0.83344,-0.11404 -1.19671,-0.32967 m 10.23514,-18.23694 -7.57687,-4.49739 c -0.45217,-0.26855 -0.957,-0.40269 -1.46156,-0.40269 -0.50482,0 -1.00965,0.13414 -1.46182,0.40269 l -7.57688,4.49739 c -0.90408,0.53684 -1.46129,1.52903 -1.46129,2.60271 v 8.99504 c 0,1.07341 0.55721,2.06586 1.46156,2.6027 l 7.57687,4.49713 c 0.45244,0.26828 0.95674,0.40243 1.46156,0.40243 0.50483,0 1.00912,-0.13415 1.46129,-0.40243 l 7.57714,-4.49713 c 0.90435,-0.53684 1.46156,-1.52929 1.46156,-2.6027 v -8.99504 c 0,-1.07368 -0.55721,-2.06587 -1.46156,-2.60271"
         id="path1497"
         fill="#3e474a"
         style="fill-rule:evenodd;stroke:none;stroke-width:0.138005" /><path
         d="m -530.26498,-305.5213 -1.88675,1.12924 c -0.05,0.0291 -0.0868,0.0619 -0.087,0.12197 v 0.49371 c 0,0.0603 0.0405,0.0855 0.0905,0.0561 l 1.91585,-1.16443 c 0.05,-0.0291 0.0577,-0.0849 0.0579,-0.14499 v -0.4355 c 0,-0.0601 -0.0405,-0.0852 -0.0905,-0.0561"
         id="path1498"
         fill="#47b353"
         style="fill-rule:evenodd;stroke:none;stroke-width:0.138005" /><path
         d="m -534.28263,-309.67703 c 0.0611,-0.031 0.11139,0.007 0.11219,0.087 l 0.006,0.65273 c 0.27331,-0.10874 0.51064,-0.13785 0.72575,-0.0881 0.0466,0.0124 0.0672,0.0759 0.0482,0.15135 l -0.14367,0.57837 c -0.0111,0.0437 -0.0357,0.0879 -0.0653,0.11536 -0.0124,0.0122 -0.0251,0.0217 -0.0378,0.0281 -0.0193,0.01 -0.0384,0.013 -0.0566,0.009 -0.0982,-0.0222 -0.33152,-0.0733 -0.69876,0.11271 -0.38523,0.195 -0.51991,0.5297 -0.51726,0.77814 0.003,0.2966 0.15531,0.38656 0.68077,0.39555 0.70009,0.0117 1.00251,0.3175 1.00992,1.02262 0.007,0.69241 -0.36248,1.43589 -0.9279,1.8915 l 0.0124,0.64612 c 7.9e-4,0.0778 -0.0497,0.16695 -0.11086,0.19791 l -0.38259,0.22039 c -0.0614,0.031 -0.11165,-0.007 -0.11245,-0.0849 l -0.007,-0.63553 c -0.32782,0.13626 -0.65987,0.16907 -0.87207,0.0839 -0.0399,-0.0156 -0.0571,-0.0746 -0.0413,-0.14182 l 0.13864,-0.5842 c 0.0111,-0.046 0.0354,-0.0921 0.0685,-0.12144 0.0116,-0.0114 0.0238,-0.0201 0.036,-0.0262 0.022,-0.0111 0.0434,-0.0135 0.0616,-0.007 0.2286,0.077 0.52096,0.041 0.80221,-0.10134 0.35719,-0.18071 0.59611,-0.54504 0.59241,-0.90699 -0.003,-0.32835 -0.18124,-0.46487 -0.61357,-0.46805 -0.55034,0.002 -1.06336,-0.10689 -1.07183,-0.91704 -0.007,-0.66702 0.33999,-1.36102 0.889,-1.79996 l -0.007,-0.6522 c -7.9e-4,-0.0802 0.0482,-0.16828 0.11113,-0.20003 z"
         id="path1499"
         fill="#fefefe"
         style="fill-rule:evenodd;stroke:none;stroke-width:0.138005" /></g></g><style
     type="text/css"
     id="style1">&#10;	.st0{fill:#76C2AF;}&#10;	.st1{opacity:0.2;}&#10;	.st2{fill:#231F20;}&#10;	.st3{fill:#FFFFFF;}&#10;</style><style
     type="text/css"
     id="style1-1">&#10;	.st0{fill:#C75C5C;}&#10;	.st1{opacity:0.2;}&#10;	.st2{fill:#231F20;}&#10;	.st3{fill:#E0995E;}&#10;	.st4{fill:#F5CF87;}&#10;	.st5{fill:#4F5D73;}&#10;</style><style
     type="text/css"
     id="style1-9">	.st0{clip-path:url(#SVGID_2_);fill:#E30613;}	.st1{clip-path:url(#SVGID_2_);}</style></svg>
