<?xml version="1.0" encoding="UTF-8" standalone="no"?>
<!-- Created with Inkscape (http://www.inkscape.org/) -->

<svg
   width="137.34309mm"
   height="137.34306mm"
   viewBox="0 0 137.34309 137.34306"
   version="1.1"
   id="svg1"
   inkscape:version="1.3 (0e150ed6c4, 2023-07-21)"
   sodipodi:docname="drawing.svg"
   xml:space="preserve"
   xmlns:inkscape="http://www.inkscape.org/namespaces/inkscape"
   xmlns:sodipodi="http://sodipodi.sourceforge.net/DTD/sodipodi-0.dtd"
   xmlns="http://www.w3.org/2000/svg"
   xmlns:svg="http://www.w3.org/2000/svg"><sodipodi:namedview
     id="namedview1"
     pagecolor="#ffffff"
     bordercolor="#999999"
     borderopacity="1"
     inkscape:showpageshadow="2"
     inkscape:pageopacity="0"
     inkscape:pagecheckerboard="0"
     inkscape:deskcolor="#d1d1d1"
     inkscape:document-units="mm"
     inkscape:zoom="0.1157493"
     inkscape:cx="3827.2369"
     inkscape:cy="-1637.1589"
     inkscape:window-width="1920"
     inkscape:window-height="991"
     inkscape:window-x="-9"
     inkscape:window-y="-9"
     inkscape:window-maximized="1"
     inkscape:current-layer="layer1" /><defs
     id="defs1" /><g
     inkscape:label="Layer 1"
     inkscape:groupmode="layer"
     id="layer1"
     transform="translate(-980.68972,525.75554)"><g
       id="g107"
       transform="translate(-696.03552)"><rect
         style="fill:#e9ca32;fill-opacity:1;fill-rule:evenodd;stroke-width:0.765;stroke-linecap:round;-inkscape-stroke:none"
         id="rect90"
         width="137.34306"
         height="137.34306"
         x="1676.7252"
         y="-525.75555"
         ry="27.618076" /><path
         fill="#e44d26"
         d="m 1700.4338,-407.20805 -10.005,-112.215 h 109.936 l -10.016,112.198 -45.019,12.48 z"
         id="path98"
         style="fill:#f0db4f;fill-opacity:1;stroke-width:0.264583" /><g
         style="fill:#16502d;stroke-width:5.2707"
         id="g106"
         transform="matrix(0.88658065,0,0,0.88091739,1693.0748,-516.7772)"><path
           d="M 10.383,126.894 0,0 124,0.255 113.021,126.894 62.468,141.532 Z"
           fill="#e9ca32"
           id="path103"
           style="fill:#16502d;stroke-width:5.2707" /><path
           d="M 62.468,129.277 V 12.085 l 51.064,0.17 -9.106,104.851 z"
           fill="#ffde25"
           id="path104"
           style="fill:#16502d;stroke-width:5.2707" /><g
           fill="#ffffff"
           id="g105"
           style="fill:#16502d;stroke-width:5.2707"><path
             d="M 57,26 H 43.5 v 78 L 33,102 V 91.5 l -12.5,-2 V 113 l 36.5,9.5 z m 10.127,0 H 104.5 L 102,40.95 H 81.394 V 65.483 H 102 L 99.5,115 67.127,122.5 V 107 L 89,99.5 90.263,79 67.127,82.35 Z"
             id="path105"
             style="fill:#16502d;stroke-width:5.2707" /></g></g><g
         style="fill:none;stroke-width:5.2707"
         id="g102"
         transform="matrix(0.88658065,0,0,0.88091739,1690.4288,-519.42305)"><path
           d="M 10.383,126.894 0,0 124,0.255 113.021,126.894 62.468,141.532 Z"
           fill="#e9ca32"
           id="path1"
           style="stroke-width:5.2707" /><path
           d="M 62.468,129.277 V 12.085 l 51.064,0.17 -9.106,104.851 z"
           fill="#ffde25"
           id="path2-57"
           style="stroke-width:5.2707" /><g
           fill="#ffffff"
           id="g3"
           style="stroke-width:5.2707"><path
             d="M 57,26 H 43.5 v 78 L 33,102 V 91.5 l -12.5,-2 V 113 l 36.5,9.5 z m 10.127,0 H 104.5 L 102,40.95 H 81.394 V 65.483 H 102 L 99.5,115 67.127,122.5 V 107 L 89,99.5 90.263,79 67.127,82.35 Z"
             id="path3"
             style="stroke-width:5.2707" /></g></g></g></g></svg>
