<?xml version="1.0" encoding="UTF-8" standalone="no"?>
<!-- Created with Inkscape (http://www.inkscape.org/) -->

<svg
   width="34.698723mm"
   height="46.01302mm"
   viewBox="0 0 34.698723 46.01302"
   version="1.1"
   id="svg5"
   xml:space="preserve"
   inkscape:version="1.3 (0e150ed6c4, 2023-07-21)"
   sodipodi:docname="_ICONsQueFiz.svg"
   xmlns:inkscape="http://www.inkscape.org/namespaces/inkscape"
   xmlns:sodipodi="http://sodipodi.sourceforge.net/DTD/sodipodi-0.dtd"
   xmlns:xlink="http://www.w3.org/1999/xlink"
   xmlns="http://www.w3.org/2000/svg"
   xmlns:svg="http://www.w3.org/2000/svg"><sodipodi:namedview
     id="namedview7"
     pagecolor="#ffffff"
     bordercolor="#999999"
     borderopacity="1"
     inkscape:showpageshadow="0"
     inkscape:pageopacity="0"
     inkscape:pagecheckerboard="0"
     inkscape:deskcolor="#d1d1d1"
     inkscape:document-units="mm"
     showgrid="false"
     showguides="true"
     inkscape:zoom="0.63999997"
     inkscape:cx="-4185.9377"
     inkscape:cy="-758.59378"
     inkscape:window-width="1920"
     inkscape:window-height="991"
     inkscape:window-x="-9"
     inkscape:window-y="-9"
     inkscape:window-maximized="1"
     inkscape:current-layer="layer1"><sodipodi:guide
       position="1213.5484,16.262276"
       orientation="0,-1"
       id="guide7"
       inkscape:locked="false" /><sodipodi:guide
       position="1213.5484,-29.751094"
       orientation="0,-1"
       id="guide8"
       inkscape:locked="false" /><sodipodi:guide
       position="2059.492,10.324906"
       orientation="0,-1"
       id="guide30"
       inkscape:locked="false" /><sodipodi:guide
       position="3634.9657,-21.573714"
       orientation="0,-1"
       id="guide1"
       inkscape:locked="false" /><sodipodi:guide
       position="3070.468,25.297046"
       orientation="0,-1"
       id="guide67"
       inkscape:locked="false" /><sodipodi:guide
       position="1107.9211,96.190566"
       orientation="0,-1"
       id="guide6"
       inkscape:locked="false" /><sodipodi:guide
       position="1107.9211,142.20395"
       orientation="0,-1"
       id="guide9"
       inkscape:locked="false" /><sodipodi:guide
       position="745.63257,250.98662"
       orientation="0,-1"
       id="guide10"
       inkscape:locked="false" /><sodipodi:guide
       position="1452.538,296.99998"
       orientation="0,-1"
       id="guide11"
       inkscape:locked="false" /><sodipodi:guide
       position="1115.7174,362.4265"
       orientation="0,-1"
       id="guide713"
       inkscape:locked="false" /></sodipodi:namedview><defs
     id="defs2"><style
       type="text/css"
       id="style1-2">&#10;   <![CDATA[
    .fil0 {fill:none}
    .fil2 {fill:black;fill-rule:nonzero}
    .fil3 {fill:#ACD4F7;fill-rule:nonzero}
    .fil4 {fill:#DEDEDE;fill-rule:nonzero}
    .fil1 {fill:white;fill-rule:nonzero}
   ]]>&#10;  </style><linearGradient
       id="a-8"
       gradientUnits="userSpaceOnUse"
       x1="2.5899999"
       y1="10.16"
       x2="15.41"
       y2="10.16"
       gradientTransform="scale(7.11111)"><stop
         offset="0"
         style="stop-color:#005ba1;stop-opacity:1"
         id="stop4-1" /><stop
         offset=".07"
         style="stop-color:#0060a9;stop-opacity:1"
         id="stop5-8" /><stop
         offset=".36"
         style="stop-color:#0071c8;stop-opacity:1"
         id="stop6-8" /><stop
         offset=".52"
         style="stop-color:#0078d4;stop-opacity:1"
         id="stop7-5" /><stop
         offset=".64"
         style="stop-color:#0074cd;stop-opacity:1"
         id="stop8-0" /><stop
         offset=".82"
         style="stop-color:#006abb;stop-opacity:1"
         id="stop9-4" /><stop
         offset="1"
         style="stop-color:#005ba1;stop-opacity:1"
         id="stop10-9" /></linearGradient><linearGradient
       inkscape:collect="always"
       xlink:href="#a-8"
       id="linearGradient24-4"
       gradientUnits="userSpaceOnUse"
       gradientTransform="matrix(1.8814812,0,0,1.8814812,168.46283,73.126109)"
       x1="2.5899999"
       y1="10.16"
       x2="15.41"
       y2="10.16" /></defs><g
     inkscape:label="Layer 1"
     inkscape:groupmode="layer"
     id="layer1"
     transform="translate(1072.5993,277.78838)"><g
       id="g46"
       transform="matrix(1.4385587,0,0,1.4385587,-1321.9531,-384.33766)"
       style="stroke-width:0.69514"
       inkscape:export-filename="img-sqllite.svg"
       inkscape:export-xdpi="96"
       inkscape:export-ydpi="96"><path
         style="fill:url(#linearGradient24-4);fill-rule:nonzero;stroke:none;stroke-width:0.183922"
         d="m 185.39616,82.79663 c -6.66009,0 -12.06023,-1.88092 -12.06023,-4.3643 v 23.25423 c 0,2.38971 5.30621,4.32753 11.89064,4.36563 h 0.16959 c 6.66009,0 12.06024,-1.88199 12.06024,-4.36563 V 78.43233 c 0,2.42676 -5.40015,4.36456 -12.06024,4.36456 z m 0,0"
         id="path16-8" /><path
         style="fill:#e8e8e8;fill-opacity:1;fill-rule:nonzero;stroke:none;stroke-width:0.183922"
         d="m 197.4564,78.43233 c 0,2.42676 -5.40015,4.36456 -12.06024,4.36456 -6.66009,0 -12.06023,-1.88118 -12.06023,-4.36456 0,-2.483646 5.40014,-4.365627 12.06023,-4.365627 6.66009,0 12.06024,1.881981 12.06024,4.365627"
         id="path17-9" /><path
         style="fill:#50e6ff;fill-opacity:1;fill-rule:nonzero;stroke:none;stroke-width:0.183922"
         d="m 194.6534,78.07461 c 0,1.54305 -4.15872,2.78448 -9.25724,2.78448 -5.09852,0 -9.25724,-1.24143 -9.25724,-2.78448 0,-1.543049 4.15872,-2.765689 9.25724,-2.765689 5.09852,0 9.25724,1.241161 9.25724,2.765689"
         id="path18-7" /><path
         style="fill:#198ab3;fill-opacity:1;fill-rule:nonzero;stroke:none;stroke-width:0.183922"
         d="m 185.39616,78.7702 a 21.746898,21.746898 0 0 0 -7.31943,1.07289 21.487606,21.487606 0 0 0 7.31943,1.016 20.990454,20.990454 0 0 0 7.31944,-1.09141 22.312841,22.312841 0 0 0 -7.31944,-0.99748 z m 0,0"
         id="path19-6" /><path
         d="m 189.93546,75.663425 c -1.27625,-1.143854 -2.82363,-0.684732 -4.34612,0.676244 -0.22771,0.202812 -0.45542,0.426298 -0.68047,0.666198 -2.60863,2.786539 -5.03086,7.943428 -5.78178,11.88389 0.29128,0.595764 0.52109,1.358854 0.67256,1.942429 a 21.517689,21.517689 0 0 1 0.2023,0.876955 c 0,0 -0.0248,-0.09107 -0.11969,-0.370156 l -0.0647,-0.184338 a 0.95850708,0.95850708 0 0 0 -0.0392,-0.09687 c -0.16953,-0.399278 -0.64076,-1.239165 -0.84783,-1.605098 a 37.31558,37.31558 0 0 0 -0.46337,1.462131 c 0.59576,1.100421 0.95958,2.98937 0.95958,2.98937 0,0 -0.029,-0.12389 -0.18014,-0.54809 -0.1345,-0.37864 -0.79805,-1.549514 -0.95745,-1.82488 -0.269,1.00141 -0.3744,1.67553 -0.27961,1.84129 0.18854,0.3188 0.36857,0.86689 0.52585,1.47749 0.35376,1.3689 0.59735,3.03438 0.59735,3.03438 l 0.0212,0.28067 a 28.319383,28.319383 0 0 0 0.0699,3.42201 c 0.11649,1.42507 0.33894,2.64994 0.61855,3.30765 l 0.19274,-0.10588 c -0.41411,-1.29214 -0.58145,-2.98673 -0.5089,-4.93922 0.11128,-2.98515 0.79435,-6.5867 2.05575,-10.337057 2.1352,-5.666309 5.09122,-10.210481 7.79887,-12.381161 -2.46777,2.242694 -5.80664,9.497689 -6.80753,12.186816 -1.11895,3.005263 -1.91118,5.829412 -2.39096,8.536532 0.82718,-2.53607 3.49405,-3.62591 3.49405,-3.62591 0,0 1.30695,-1.62205 2.83579,-3.942579 -0.91454,0.210757 -2.42008,0.570866 -2.92318,0.781623 -0.74455,0.314555 -0.9426,0.422055 -0.9426,0.422055 0,0 2.40738,-1.472699 4.46949,-2.143119 2.84056,-4.497057 5.93533,-10.887266 2.81991,-13.683894"
         fill="#003956"
         id="path23-4"
         style="fill:#000000;fill-opacity:1;stroke-width:0.183922" /></g></g><style
     type="text/css"
     id="style1">&#10;	.st0{fill:#76C2AF;}&#10;	.st1{opacity:0.2;}&#10;	.st2{fill:#231F20;}&#10;	.st3{fill:#FFFFFF;}&#10;</style><style
     type="text/css"
     id="style1-1">&#10;	.st0{fill:#C75C5C;}&#10;	.st1{opacity:0.2;}&#10;	.st2{fill:#231F20;}&#10;	.st3{fill:#E0995E;}&#10;	.st4{fill:#F5CF87;}&#10;	.st5{fill:#4F5D73;}&#10;</style><style
     type="text/css"
     id="style1-9">	.st0{clip-path:url(#SVGID_2_);fill:#E30613;}	.st1{clip-path:url(#SVGID_2_);}</style></svg>
