<?xml version="1.0" encoding="UTF-8" standalone="no"?>
<!-- Created with Inkscape (http://www.inkscape.org/) -->

<svg
   width="47.036533mm"
   height="46.01302mm"
   viewBox="0 0 47.036533 46.01302"
   version="1.1"
   id="svg5"
   xml:space="preserve"
   inkscape:version="1.3 (0e150ed6c4, 2023-07-21)"
   sodipodi:docname="_ICONsQueFiz.svg"
   xmlns:inkscape="http://www.inkscape.org/namespaces/inkscape"
   xmlns:sodipodi="http://sodipodi.sourceforge.net/DTD/sodipodi-0.dtd"
   xmlns:xlink="http://www.w3.org/1999/xlink"
   xmlns="http://www.w3.org/2000/svg"
   xmlns:svg="http://www.w3.org/2000/svg"><sodipodi:namedview
     id="namedview7"
     pagecolor="#ffffff"
     bordercolor="#999999"
     borderopacity="1"
     inkscape:showpageshadow="0"
     inkscape:pageopacity="0"
     inkscape:pagecheckerboard="0"
     inkscape:deskcolor="#d1d1d1"
     inkscape:document-units="mm"
     showgrid="false"
     showguides="true"
     inkscape:zoom="0.63999997"
     inkscape:cx="-4185.9377"
     inkscape:cy="-758.59378"
     inkscape:window-width="1920"
     inkscape:window-height="991"
     inkscape:window-x="-9"
     inkscape:window-y="-9"
     inkscape:window-maximized="1"
     inkscape:current-layer="layer1"><sodipodi:guide
       position="1271.7083,16.262276"
       orientation="0,-1"
       id="guide7"
       inkscape:locked="false" /><sodipodi:guide
       position="1271.7083,-29.751094"
       orientation="0,-1"
       id="guide8"
       inkscape:locked="false" /><sodipodi:guide
       position="2117.6519,10.324906"
       orientation="0,-1"
       id="guide30"
       inkscape:locked="false" /><sodipodi:guide
       position="3693.1256,-21.573714"
       orientation="0,-1"
       id="guide1"
       inkscape:locked="false" /><sodipodi:guide
       position="3128.6279,25.297046"
       orientation="0,-1"
       id="guide67"
       inkscape:locked="false" /><sodipodi:guide
       position="1166.0811,96.190566"
       orientation="0,-1"
       id="guide6"
       inkscape:locked="false" /><sodipodi:guide
       position="1166.0811,142.20395"
       orientation="0,-1"
       id="guide9"
       inkscape:locked="false" /><sodipodi:guide
       position="803.79248,250.98662"
       orientation="0,-1"
       id="guide10"
       inkscape:locked="false" /><sodipodi:guide
       position="1510.698,296.99998"
       orientation="0,-1"
       id="guide11"
       inkscape:locked="false" /><sodipodi:guide
       position="1173.8773,362.4265"
       orientation="0,-1"
       id="guide713"
       inkscape:locked="false" /></sodipodi:namedview><defs
     id="defs2"><style
       type="text/css"
       id="style1-2">&#10;   <![CDATA[
    .fil0 {fill:none}
    .fil2 {fill:black;fill-rule:nonzero}
    .fil3 {fill:#ACD4F7;fill-rule:nonzero}
    .fil4 {fill:#DEDEDE;fill-rule:nonzero}
    .fil1 {fill:white;fill-rule:nonzero}
   ]]>&#10;  </style><linearGradient
       id="a-8"
       gradientUnits="userSpaceOnUse"
       x1="2.5899999"
       y1="10.16"
       x2="15.41"
       y2="10.16"
       gradientTransform="scale(7.11111)"><stop
         offset="0"
         style="stop-color:#005ba1;stop-opacity:1"
         id="stop4-1" /><stop
         offset=".07"
         style="stop-color:#0060a9;stop-opacity:1"
         id="stop5-8" /><stop
         offset=".36"
         style="stop-color:#0071c8;stop-opacity:1"
         id="stop6-8" /><stop
         offset=".52"
         style="stop-color:#0078d4;stop-opacity:1"
         id="stop7-5" /><stop
         offset=".64"
         style="stop-color:#0074cd;stop-opacity:1"
         id="stop8-0" /><stop
         offset=".82"
         style="stop-color:#006abb;stop-opacity:1"
         id="stop9-4" /><stop
         offset="1"
         style="stop-color:#005ba1;stop-opacity:1"
         id="stop10-9" /></linearGradient><linearGradient
       inkscape:collect="always"
       xlink:href="#a-8"
       id="linearGradient16"
       gradientUnits="userSpaceOnUse"
       gradientTransform="matrix(2.7066211,0,0,2.7066211,-1129.593,-279.14146)"
       x1="2.5899999"
       y1="10.16"
       x2="15.41"
       y2="10.16" /></defs><g
     inkscape:label="Layer 1"
     inkscape:groupmode="layer"
     id="layer1"
     transform="translate(1130.7592,277.78838)"><g
       id="g96"><path
         style="stroke:#f9f9f9;stroke-width:0.765;stroke-dasharray:none"
         d="m -1084.3213,-270.2388 a 0.65732842,0.65732842 0 0 0 -0.4469,-0.14921 c -0.4445,0 -1.02,0.30184 -1.3302,0.46359 l -0.1226,0.0629 a 4.222964,4.222964 0 0 1 -1.6614,0.41868 c -0.5915,0.0187 -1.1008,0.0532 -1.7642,0.12256 -3.9306,0.40346 -5.6837,3.41605 -7.3726,6.32969 -0.9195,1.58489 -1.8688,3.23107 -3.1705,4.48863 a 8.5532625,8.5532625 0 0 1 -0.8571,0.72812 c -1.3474,1.00141 -3.0393,1.71659 -4.3555,2.22281 -1.267,0.48453 -2.6506,0.91996 -3.9866,1.34131 -1.2252,0.38517 -2.3807,0.74981 -3.4438,1.14489 a 36.882709,36.882709 0 0 1 -1.2465,0.43391 c -0.9687,0.31401 -1.6664,0.55494 -2.6872,1.25756 a 17.274758,17.274758 0 0 0 -1.0673,0.78636 11.260603,11.260603 0 0 0 -2.1303,2.24336 13.246291,13.246291 0 0 1 -1.7893,2.14745 c -0.2154,0.21087 -0.5975,0.3144 -1.17,0.3144 -0.6699,0 -1.4825,-0.1381 -2.3423,-0.28432 -0.8869,-0.1572 -1.8034,-0.30639 -2.5894,-0.30639 -0.6383,0 -1.1274,0.10386 -1.492,0.31438 0,0 -0.6155,0.35855 -0.8747,0.82213 l 0.2551,0.11495 a 5.2213268,5.2213268 0 0 1 1.0881,0.78598 5.4588328,5.4588328 0 0 0 1.1316,0.805 0.97171943,0.97171943 0 0 1 0.3494,0.22153 c -0.1069,0.15719 -0.2641,0.36005 -0.4297,0.57702 -0.9074,1.18714 -1.4364,1.93733 -1.1331,2.34574 a 0.95421098,0.95421098 0 0 0 0.4716,0.1066 c 1.9777,0 3.0408,-0.51376 4.3847,-1.16461 0.3898,-0.1884 0.7864,-0.38213 1.258,-0.58159 0.786,-0.34103 1.6321,-0.88493 2.5299,-1.46081 1.1739,-0.76504 2.4018,-1.5514 3.5938,-1.93049 a 9.7948405,9.7948405 0 0 1 3.0233,-0.42439 c 1.2579,0 2.5817,0.16785 3.8587,0.33189 0.9512,0.12256 1.937,0.24816 2.9042,0.3064 0.3752,0.0217 0.7231,0.0328 1.0607,0.0328 a 12.296647,12.296647 0 0 0 1.3539,-0.0705 l 0.108,-0.0381 c 0.6779,-0.41639 0.9961,-1.31084 1.3036,-2.17599 0.198,-0.55646 0.3654,-1.05622 0.6288,-1.37404 a 0.40117206,0.40117206 0 0 1 0.05,-0.0419 0.06318269,0.06318269 0 0 1 0.077,0.0115 v 0.0252 c -0.1568,3.38181 -1.5186,5.52926 -2.8957,7.43845 l -0.9196,0.9858 c 0,0 1.2877,0 2.02,-0.28318 2.6734,-0.79892 4.6907,-2.55967 6.1588,-5.36787 a 22.907534,22.907534 0 0 0 0.9701,-2.21521 c 0.025,-0.0629 0.2562,-0.17888 0.2345,0.14616 -0.01,0.0959 -0.014,0.20288 -0.022,0.31477 0,0.0659 0,0.13321 -0.013,0.20097 -0.038,0.47197 -0.1492,1.46881 -0.1492,1.46881 l 0.8256,-0.44229 c 1.9902,-1.25755 3.5245,-3.79476 4.6884,-7.74291 0.4842,-1.64466 0.8393,-3.27827 1.1522,-4.71663 0.3741,-1.72993 0.6965,-3.21244 1.066,-3.78794 0.5801,-0.90207 1.4654,-1.51219 2.3222,-2.10482 0.1165,-0.0803 0.2345,-0.15758 0.349,-0.24246 1.0772,-0.7559 2.1478,-1.62866 2.3838,-3.25619 v -0.0361 c 0.1713,-1.2138 0.027,-1.52324 -0.1385,-1.66445 z"
         id="path81" /><path
         style="fill:url(#linearGradient16);fill-rule:nonzero;stroke:none;stroke-width:0.264583"
         d="m -1105.2334,-265.22985 c -9.581,0 -17.3494,-2.70581 -17.3494,-6.2783 v 33.45258 c 0,3.43773 7.6333,6.2254 17.1054,6.28021 h 0.244 c 9.5809,0 17.3493,-2.70735 17.3493,-6.28021 v -33.45258 c 0,3.49104 -7.7684,6.27868 -17.3493,6.27868 z m 0,0"
         id="path7-70" /><path
         style="fill:#e8e8e8;fill-opacity:1;fill-rule:nonzero;stroke:none;stroke-width:0.264583"
         d="m -1087.8841,-271.50815 c 0,3.49104 -7.7684,6.27868 -17.3493,6.27868 -9.581,0 -17.3494,-2.70619 -17.3494,-6.27868 0,-3.57287 7.7684,-6.28021 17.3494,-6.28021 9.5809,0 17.3493,2.70734 17.3493,6.28021"
         id="path8-11" /><path
         style="fill:#50e6ff;fill-opacity:1;fill-rule:nonzero;stroke:none;stroke-width:0.264583"
         d="m -1091.9164,-272.02275 c 0,2.21977 -5.9825,4.00564 -13.317,4.00564 -7.3346,0 -13.3171,-1.78587 -13.3171,-4.00564 0,-2.21977 5.9825,-3.97861 13.3171,-3.97861 7.3345,0 13.317,1.78549 13.317,3.97861"
         id="path9-796" /><path
         style="fill:#198ab3;fill-opacity:1;fill-rule:nonzero;stroke:none;stroke-width:0.264583"
         d="m -1105.2334,-271.0221 a 31.284189,31.284189 0 0 0 -10.5295,1.54341 30.911183,30.911183 0 0 0 10.5295,1.46158 30.196,30.196 0 0 0 10.5294,-1.57006 32.098332,32.098332 0 0 0 -10.5294,-1.43493 z m 0,0"
         id="path15-8" /><path
         style="stroke-width:0.264583"
         d="m -1084.3213,-270.2388 a 0.65732842,0.65732842 0 0 0 -0.4469,-0.14921 c -0.4445,0 -1.02,0.30184 -1.3302,0.46359 l -0.1226,0.0629 a 4.222964,4.222964 0 0 1 -1.6614,0.41868 c -0.5915,0.0187 -1.1008,0.0532 -1.7642,0.12256 -3.9306,0.40346 -5.6837,3.41605 -7.3726,6.32969 -0.9195,1.58489 -1.8688,3.23107 -3.1705,4.48863 a 8.5532625,8.5532625 0 0 1 -0.8571,0.72812 c -1.3474,1.00141 -3.0393,1.71659 -4.3555,2.22281 -1.267,0.48453 -2.6506,0.91996 -3.9866,1.34131 -1.2252,0.38517 -2.3807,0.74981 -3.4438,1.14489 a 36.882709,36.882709 0 0 1 -1.2465,0.43391 c -0.9687,0.31401 -1.6664,0.55494 -2.6872,1.25756 a 17.274758,17.274758 0 0 0 -1.0673,0.78636 11.260603,11.260603 0 0 0 -2.1303,2.24336 13.246291,13.246291 0 0 1 -1.7893,2.14745 c -0.2154,0.21087 -0.5975,0.3144 -1.17,0.3144 -0.6699,0 -1.4825,-0.1381 -2.3423,-0.28432 -0.8869,-0.1572 -1.8034,-0.30639 -2.5894,-0.30639 -0.6383,0 -1.1274,0.10386 -1.492,0.31438 0,0 -0.6155,0.35855 -0.8747,0.82213 l 0.2551,0.11495 a 5.2213268,5.2213268 0 0 1 1.0881,0.78598 5.4588328,5.4588328 0 0 0 1.1316,0.805 0.97171943,0.97171943 0 0 1 0.3494,0.22153 c -0.1069,0.15719 -0.2641,0.36005 -0.4297,0.57702 -0.9074,1.18714 -1.4364,1.93733 -1.1331,2.34574 a 0.95421098,0.95421098 0 0 0 0.4716,0.1066 c 1.9777,0 3.0408,-0.51376 4.3847,-1.16461 0.3898,-0.1884 0.7864,-0.38213 1.258,-0.58159 0.786,-0.34103 1.6321,-0.88493 2.5299,-1.46081 1.1739,-0.76504 2.4018,-1.5514 3.5938,-1.93049 a 9.7948405,9.7948405 0 0 1 3.0233,-0.42439 c 1.2579,0 2.5817,0.16785 3.8587,0.33189 0.9512,0.12256 1.937,0.24816 2.9042,0.3064 0.3752,0.0217 0.7231,0.0328 1.0607,0.0328 a 12.296647,12.296647 0 0 0 1.3539,-0.0705 l 0.108,-0.0381 c 0.6779,-0.41639 0.9961,-1.31084 1.3036,-2.17599 0.198,-0.55646 0.3654,-1.05622 0.6288,-1.37404 a 0.40117206,0.40117206 0 0 1 0.05,-0.0419 0.06318269,0.06318269 0 0 1 0.077,0.0115 v 0.0252 c -0.1568,3.38181 -1.5186,5.52926 -2.8957,7.43845 l -0.9196,0.9858 c 0,0 1.2877,0 2.02,-0.28318 2.6734,-0.79892 4.6907,-2.55967 6.1588,-5.36787 a 22.907534,22.907534 0 0 0 0.9701,-2.21521 c 0.025,-0.0629 0.2562,-0.17888 0.2345,0.14616 -0.01,0.0959 -0.014,0.20288 -0.022,0.31477 0,0.0659 0,0.13321 -0.013,0.20097 -0.038,0.47197 -0.1492,1.46881 -0.1492,1.46881 l 0.8256,-0.44229 c 1.9902,-1.25755 3.5245,-3.79476 4.6884,-7.74291 0.4842,-1.64466 0.8393,-3.27827 1.1522,-4.71663 0.3741,-1.72993 0.6965,-3.21244 1.066,-3.78794 0.5801,-0.90207 1.4654,-1.51219 2.3222,-2.10482 0.1165,-0.0803 0.2345,-0.15758 0.349,-0.24246 1.0772,-0.7559 2.1478,-1.62866 2.3838,-3.25619 v -0.0361 c 0.1713,-1.2138 0.027,-1.52324 -0.1385,-1.66445 z"
         id="path24-7" /></g></g><style
     type="text/css"
     id="style1">&#10;	.st0{fill:#76C2AF;}&#10;	.st1{opacity:0.2;}&#10;	.st2{fill:#231F20;}&#10;	.st3{fill:#FFFFFF;}&#10;</style><style
     type="text/css"
     id="style1-1">&#10;	.st0{fill:#C75C5C;}&#10;	.st1{opacity:0.2;}&#10;	.st2{fill:#231F20;}&#10;	.st3{fill:#E0995E;}&#10;	.st4{fill:#F5CF87;}&#10;	.st5{fill:#4F5D73;}&#10;</style><style
     type="text/css"
     id="style1-9">	.st0{clip-path:url(#SVGID_2_);fill:#E30613;}	.st1{clip-path:url(#SVGID_2_);}</style></svg>
