<?xml version="1.0" encoding="UTF-8" standalone="no"?>
<!-- Created with Inkscape (http://www.inkscape.org/) -->

<svg
   width="46.542164mm"
   height="47.071304mm"
   viewBox="0 0 46.542164 47.071304"
   version="1.1"
   id="svg5"
   xml:space="preserve"
   inkscape:version="1.3 (0e150ed6c4, 2023-07-21)"
   sodipodi:docname="_ICONsQueFiz.svg"
   xmlns:inkscape="http://www.inkscape.org/namespaces/inkscape"
   xmlns:sodipodi="http://sodipodi.sourceforge.net/DTD/sodipodi-0.dtd"
   xmlns="http://www.w3.org/2000/svg"
   xmlns:svg="http://www.w3.org/2000/svg"><sodipodi:namedview
     id="namedview7"
     pagecolor="#ffffff"
     bordercolor="#999999"
     borderopacity="1"
     inkscape:showpageshadow="0"
     inkscape:pageopacity="0"
     inkscape:pagecheckerboard="0"
     inkscape:deskcolor="#d1d1d1"
     inkscape:document-units="mm"
     showgrid="false"
     showguides="true"
     inkscape:zoom="0.9050966"
     inkscape:cx="-235.334"
     inkscape:cy="-877.80686"
     inkscape:window-width="1920"
     inkscape:window-height="991"
     inkscape:window-x="-9"
     inkscape:window-y="-9"
     inkscape:window-maximized="1"
     inkscape:current-layer="layer1"><sodipodi:guide
       position="186.63335,16.791848"
       orientation="0,-1"
       id="guide7"
       inkscape:locked="false" /><sodipodi:guide
       position="186.63335,-29.221522"
       orientation="0,-1"
       id="guide8"
       inkscape:locked="false" /><sodipodi:guide
       position="1032.5769,10.854478"
       orientation="0,-1"
       id="guide30"
       inkscape:locked="false" /><sodipodi:guide
       position="2608.0506,-21.044142"
       orientation="0,-1"
       id="guide1"
       inkscape:locked="false" /><sodipodi:guide
       position="2043.5529,25.826618"
       orientation="0,-1"
       id="guide67"
       inkscape:locked="false" /><sodipodi:guide
       position="81.006069,96.720138"
       orientation="0,-1"
       id="guide6"
       inkscape:locked="false" /><sodipodi:guide
       position="81.006069,142.73352"
       orientation="0,-1"
       id="guide9"
       inkscape:locked="false" /><sodipodi:guide
       position="-281.2825,251.51619"
       orientation="0,-1"
       id="guide10"
       inkscape:locked="false" /><sodipodi:guide
       position="425.62297,297.52955"
       orientation="0,-1"
       id="guide11"
       inkscape:locked="false" /><sodipodi:guide
       position="88.802295,362.95607"
       orientation="0,-1"
       id="guide713"
       inkscape:locked="false" /></sodipodi:namedview><defs
     id="defs2"><style
       type="text/css"
       id="style1-2">&#10;   <![CDATA[
    .fil0 {fill:none}
    .fil2 {fill:black;fill-rule:nonzero}
    .fil3 {fill:#ACD4F7;fill-rule:nonzero}
    .fil4 {fill:#DEDEDE;fill-rule:nonzero}
    .fil1 {fill:white;fill-rule:nonzero}
   ]]>&#10;  </style><clipPath
       clipPathUnits="userSpaceOnUse"
       id="clipPath5"><path
         style="font-size:18.0626px;line-height:1.25;font-family:Impact;-inkscape-font-specification:Impact;fill:#800080;stroke-width:0.264583"
         d="m 145.54012,133.47701 v 11.1552 h -4.15449 v -7.53097 l -1.65954,7.53097 h -2.94653 l -1.74985,-7.35871 v 7.35871 h -4.15449 v -11.1552 h 6.15271 q 0.27094,1.00597 0.57576,2.37022 l 0.65478,2.83875 1.08379,-5.20897 z"
         id="path6-0"
         aria-label="M" /></clipPath></defs><g
     inkscape:label="Layer 1"
     inkscape:groupmode="layer"
     id="layer1"
     transform="translate(45.684201,277.25881)"><g
       id="g777"><circle
         style="fill:#333333;fill-opacity:1;fill-rule:evenodd;stroke:none;stroke-width:0.665001;stroke-linecap:round"
         id="circle774"
         cx="-22.148537"
         cy="-253.19402"
         r="23.0065"
         inkscape:export-filename="img-m2.svg"
         inkscape:export-xdpi="96"
         inkscape:export-ydpi="96" /><circle
         style="fill:#edc9ed;fill-opacity:1;fill-rule:evenodd;stroke:none;stroke-width:0.665001;stroke-linecap:round"
         id="path742"
         cx="-22.677704"
         cy="-254.25233"
         r="23.0065"
         inkscape:export-filename="img-m2.svg"
         inkscape:export-xdpi="96"
         inkscape:export-ydpi="96" /><g
         id="g741"
         transform="matrix(0.81157341,0,0,0.81157341,-15.285806,-3.5871814)"
         inkscape:export-filename="img-m.svg"
         inkscape:export-xdpi="96"
         inkscape:export-ydpi="96"
         style="stroke-width:1.23217"><g
           id="g734"
           transform="translate(3.6393176,-98.677126)"
           style="fill:#333333;stroke-width:1.23217"><g
             id="g730"
             transform="translate(50.764434,-0.88838624)"
             style="fill:#333333;stroke-width:1.23217" /><g
             id="g733"
             transform="translate(-104.03208,111.43988)"
             style="fill:#333333;stroke-width:1.23217"><path
               style="font-size:18.0626px;line-height:1.25;font-family:Impact;-inkscape-font-specification:Impact;fill:#333333;fill-opacity:1;stroke-width:0.326012"
               d="m 54.173764,-333.59736 v 26.77792 h -7.586043 v -18.07799 l -3.030299,18.07799 h -5.380324 l -3.195204,-17.66448 v 17.66448 h -7.586043 v -26.77792 h 11.234767 q 0.494733,2.41482 1.05133,5.68969 l 1.19562,6.81439 1.978986,-12.50408 z"
               id="path730"
               aria-label="M"
               transform="translate(50.764435,-0.88838624)" /><path
               style="font-size:30.0948px;line-height:1.25;font-family:'Old English Text MT';-inkscape-font-specification:'Old English Text MT';fill:#333333;stroke-width:0.326012"
               d="m 82.722201,-344.10327 v 1.14969 q -2.554854,0.48541 -3.781192,1.81395 -1.20078,1.30297 -1.20078,2.98918 0,1.71176 0.61316,4.26661 0.613178,2.52932 0.613178,4.41991 0,1.7373 -1.047503,3.55124 -1.021945,1.7884 -2.963622,3.06584 -1.354092,0.8942 -4.317713,1.6862 3.168014,0.9964 4.598744,1.96726 1.890596,1.30297 2.835885,3.06581 0.945307,1.76287 0.945307,3.34686 0,1.53293 -0.638718,4.08779 -0.613177,2.55485 -0.613177,4.44545 0,1.81396 1.149699,3.11693 1.17524,1.32852 3.806732,1.8395 v 1.20078 H 81.82801 q -4.522106,0 -7.485745,-3.09137 -2.171627,-2.27383 -2.171627,-5.00753 0,-1.76285 0.792012,-4.82868 0.58762,-2.27383 0.58762,-4.06223 0,-2.01834 -1.277435,-3.42352 -1.277436,-1.43071 -3.730095,-1.83949 v -1.55845 q 2.452659,-0.40879 3.730095,-1.8906 1.277435,-1.48183 1.277435,-3.60236 0,-1.7373 -0.56208,-3.90893 -0.792012,-3.04029 -0.792012,-4.6243 0,-1.66066 0.996405,-3.37241 0.996388,-1.71176 2.503756,-2.7848 1.507369,-1.07305 3.295769,-1.55846 1.379631,-0.38323 3.730093,-0.45987 z"
               id="path731"
               aria-label="{" /><path
               style="font-size:30.0948px;line-height:1.25;font-family:'Old English Text MT';-inkscape-font-specification:'Old English Text MT';fill:#333333;stroke-width:0.326012"
               d="m 100.37628,-344.10327 v 1.14969 q 2.55485,0.48541 3.78119,1.81395 1.20078,1.30297 1.20078,2.98918 0,1.71176 -0.61316,4.26661 -0.61318,2.52932 -0.61318,4.41991 0,1.7373 1.04751,3.55124 1.02194,1.7884 2.96362,3.06584 1.35409,0.8942 4.31771,1.6862 -3.16801,0.9964 -4.59874,1.96726 -1.8906,1.30297 -2.83589,3.06581 -0.9453,1.76287 -0.9453,3.34686 0,1.53293 0.63871,4.08779 0.61318,2.55485 0.61318,4.44545 0,1.81396 -1.1497,3.11693 -1.17524,1.32852 -3.80673,1.8395 v 1.20078 h 0.89419 q 4.52211,0 7.48575,-3.09137 2.17162,-2.27383 2.17162,-5.00753 0,-1.76285 -0.79201,-4.82868 -0.58762,-2.27383 -0.58762,-4.06223 0,-2.01834 1.27744,-3.42352 1.27743,-1.43071 3.73009,-1.83949 v -1.55845 q -2.45266,-0.40879 -3.73009,-1.8906 -1.27744,-1.48183 -1.27744,-3.60236 0,-1.7373 0.56208,-3.90893 0.79201,-3.04029 0.79201,-4.6243 0,-1.66066 -0.9964,-3.37241 -0.99639,-1.71176 -2.50376,-2.7848 -1.50737,-1.07305 -3.29577,-1.55846 -1.37963,-0.38323 -3.73009,-0.45987 z"
               id="path733"
               aria-label="{" /></g></g><g
           id="g716"
           transform="translate(-100.92193,11.704414)"
           style="stroke-width:1.23217"><g
             id="g715"
             transform="matrix(1.0427412,0,0,1.0427412,49.021244,12.797691)"
             style="stroke-width:1.18167"><path
               style="font-size:18.0626px;line-height:1.25;font-family:Impact;-inkscape-font-specification:Impact;fill:#c449c4;fill-opacity:1;stroke-width:0.312649"
               d="m 53.624959,-333.04854 v 25.68031 h -7.275097 v -17.33699 l -2.906089,17.33699 h -5.159789 l -3.064234,-16.94043 v 16.94043 h -7.275097 v -25.68031 h 10.774262 q 0.474454,2.31584 1.008237,5.45647 l 1.146612,6.53507 1.897869,-11.99154 z"
               id="path712"
               aria-label="M" /><rect
               style="fill:#f9f9f9;fill-opacity:0.308674;fill-rule:evenodd;stroke-width:0.450232;stroke-linecap:round;-inkscape-stroke:none"
               id="rect712"
               width="46.002346"
               height="61.145977"
               x="138.29279"
               y="95.772568"
               ry="3.1395781"
               clip-path="url(#clipPath5)"
               transform="matrix(1.7511409,0,0,2.3020924,-201.2363,-640.32495)" /></g><path
             style="font-size:30.0948px;line-height:1.25;font-family:'Old English Text MT';-inkscape-font-specification:'Old English Text MT';fill:#c449c4;stroke-width:0.326012"
             d="m 82.722201,-344.10327 v 1.14969 q -2.554854,0.48541 -3.781192,1.81395 -1.20078,1.30297 -1.20078,2.98918 0,1.71176 0.61316,4.26661 0.613178,2.52932 0.613178,4.41991 0,1.7373 -1.047503,3.55124 -1.021945,1.7884 -2.963622,3.06584 -1.354092,0.8942 -4.317713,1.6862 3.168014,0.9964 4.598744,1.96726 1.890596,1.30297 2.835885,3.06581 0.945307,1.76287 0.945307,3.34686 0,1.53293 -0.638718,4.08779 -0.613177,2.55485 -0.613177,4.44545 0,1.81396 1.149699,3.11693 1.17524,1.32852 3.806732,1.8395 v 1.20078 H 81.82801 q -4.522106,0 -7.485745,-3.09137 -2.171627,-2.27383 -2.171627,-5.00753 0,-1.76285 0.792012,-4.82868 0.58762,-2.27383 0.58762,-4.06223 0,-2.01834 -1.277435,-3.42352 -1.277436,-1.43071 -3.730095,-1.83949 v -1.55845 q 2.452659,-0.40879 3.730095,-1.8906 1.277435,-1.48183 1.277435,-3.60236 0,-1.7373 -0.56208,-3.90893 -0.792012,-3.04029 -0.792012,-4.6243 0,-1.66066 0.996405,-3.37241 0.996388,-1.71176 2.503756,-2.7848 1.507369,-1.07305 3.295769,-1.55846 1.379631,-0.38323 3.730093,-0.45987 z"
             id="text715"
             aria-label="{" /><path
             style="font-size:30.0948px;line-height:1.25;font-family:'Old English Text MT';-inkscape-font-specification:'Old English Text MT';fill:#c449c4;stroke-width:0.326012"
             d="m 100.37628,-344.10327 v 1.14969 q 2.55485,0.48541 3.78119,1.81395 1.20078,1.30297 1.20078,2.98918 0,1.71176 -0.61316,4.26661 -0.61318,2.52932 -0.61318,4.41991 0,1.7373 1.04751,3.55124 1.02194,1.7884 2.96362,3.06584 1.35409,0.8942 4.31771,1.6862 -3.16801,0.9964 -4.59874,1.96726 -1.8906,1.30297 -2.83589,3.06581 -0.9453,1.76287 -0.9453,3.34686 0,1.53293 0.63871,4.08779 0.61318,2.55485 0.61318,4.44545 0,1.81396 -1.1497,3.11693 -1.17524,1.32852 -3.80673,1.8395 v 1.20078 h 0.89419 q 4.52211,0 7.48575,-3.09137 2.17162,-2.27383 2.17162,-5.00753 0,-1.76285 -0.79201,-4.82868 -0.58762,-2.27383 -0.58762,-4.06223 0,-2.01834 1.27744,-3.42352 1.27743,-1.43071 3.73009,-1.83949 v -1.55845 q -2.45266,-0.40879 -3.73009,-1.8906 -1.27744,-1.48183 -1.27744,-3.60236 0,-1.7373 0.56208,-3.90893 0.79201,-3.04029 0.79201,-4.6243 0,-1.66066 -0.9964,-3.37241 -0.99639,-1.71176 -2.50376,-2.7848 -1.50737,-1.07305 -3.29577,-1.55846 -1.37963,-0.38323 -3.73009,-0.45987 z"
             id="path715"
             aria-label="{" /></g></g></g></g><style
     type="text/css"
     id="style1">&#10;	.st0{fill:#76C2AF;}&#10;	.st1{opacity:0.2;}&#10;	.st2{fill:#231F20;}&#10;	.st3{fill:#FFFFFF;}&#10;</style><style
     type="text/css"
     id="style1-1">&#10;	.st0{fill:#C75C5C;}&#10;	.st1{opacity:0.2;}&#10;	.st2{fill:#231F20;}&#10;	.st3{fill:#E0995E;}&#10;	.st4{fill:#F5CF87;}&#10;	.st5{fill:#4F5D73;}&#10;</style><style
     type="text/css"
     id="style1-9">	.st0{clip-path:url(#SVGID_2_);fill:#E30613;}	.st1{clip-path:url(#SVGID_2_);}</style></svg>
