<?xml version="1.0" encoding="UTF-8" standalone="no"?>
<!-- Created with Inkscape (http://www.inkscape.org/) -->

<svg
   width="40.912037mm"
   height="47.071339mm"
   viewBox="0 0 40.912037 47.071339"
   version="1.1"
   id="svg5"
   xml:space="preserve"
   inkscape:version="1.3 (0e150ed6c4, 2023-07-21)"
   sodipodi:docname="_ICONsQueFiz.svg"
   xmlns:inkscape="http://www.inkscape.org/namespaces/inkscape"
   xmlns:sodipodi="http://sodipodi.sourceforge.net/DTD/sodipodi-0.dtd"
   xmlns:xlink="http://www.w3.org/1999/xlink"
   xmlns="http://www.w3.org/2000/svg"
   xmlns:svg="http://www.w3.org/2000/svg"><sodipodi:namedview
     id="namedview7"
     pagecolor="#ffffff"
     bordercolor="#999999"
     borderopacity="1"
     inkscape:showpageshadow="0"
     inkscape:pageopacity="0"
     inkscape:pagecheckerboard="0"
     inkscape:deskcolor="#d1d1d1"
     inkscape:document-units="mm"
     showgrid="false"
     showguides="true"
     inkscape:zoom="0.63999994"
     inkscape:cx="-3315.6253"
     inkscape:cy="-957.03133"
     inkscape:window-width="1920"
     inkscape:window-height="991"
     inkscape:window-x="-9"
     inkscape:window-y="-9"
     inkscape:window-maximized="1"
     inkscape:current-layer="layer1"><sodipodi:guide
       position="1054.4452,16.251564"
       orientation="0,-1"
       id="guide7"
       inkscape:locked="false" /><sodipodi:guide
       position="1054.4452,-29.761806"
       orientation="0,-1"
       id="guide8"
       inkscape:locked="false" /><sodipodi:guide
       position="1900.3888,10.314194"
       orientation="0,-1"
       id="guide30"
       inkscape:locked="false" /><sodipodi:guide
       position="3475.8625,-21.584426"
       orientation="0,-1"
       id="guide1"
       inkscape:locked="false" /><sodipodi:guide
       position="2911.3648,25.286334"
       orientation="0,-1"
       id="guide67"
       inkscape:locked="false" /><sodipodi:guide
       position="948.81792,96.179854"
       orientation="0,-1"
       id="guide6"
       inkscape:locked="false" /><sodipodi:guide
       position="948.81792,142.19323"
       orientation="0,-1"
       id="guide9"
       inkscape:locked="false" /><sodipodi:guide
       position="586.52936,250.9759"
       orientation="0,-1"
       id="guide10"
       inkscape:locked="false" /><sodipodi:guide
       position="1293.4348,296.98926"
       orientation="0,-1"
       id="guide11"
       inkscape:locked="false" /><sodipodi:guide
       position="956.61415,362.41578"
       orientation="0,-1"
       id="guide713"
       inkscape:locked="false" /></sodipodi:namedview><defs
     id="defs2"><style
       type="text/css"
       id="style1-2">&#10;   <![CDATA[
    .fil0 {fill:none}
    .fil2 {fill:black;fill-rule:nonzero}
    .fil3 {fill:#ACD4F7;fill-rule:nonzero}
    .fil4 {fill:#DEDEDE;fill-rule:nonzero}
    .fil1 {fill:white;fill-rule:nonzero}
   ]]>&#10;  </style><linearGradient
       x1="79.822205"
       y1="21.346527"
       x2="32.862076"
       y2="105.42219"
       id="b-8"
       gradientTransform="scale(0.93682488,1.0674354)"
       gradientUnits="userSpaceOnUse"><stop
         stop-color="#41873F"
         offset="0%"
         id="stop1-5" /><stop
         stop-color="#418B3D"
         offset="32.88%"
         id="stop2-8" /><stop
         stop-color="#419637"
         offset="63.52%"
         id="stop3-4" /><stop
         stop-color="#3FA92D"
         offset="93.19%"
         id="stop4-0" /><stop
         stop-color="#3FAE2A"
         offset="100%"
         id="stop5-5" /></linearGradient><path
       id="a-6"
       d="m 57.903,1.85 a 5.957,5.957 0 0 0 -5.894,0 L 3.352,29.933 c -1.85,1.04 -2.89,3.005 -2.89,5.085 v 56.286 c 0,2.08 1.156,4.045 2.89,5.085 l 48.657,28.085 a 5.957,5.957 0 0 0 5.894,0 l 48.658,-28.085 c 1.849,-1.04 2.89,-3.005 2.89,-5.085 V 35.019 c 0,-2.08 -1.157,-4.045 -2.89,-5.085 z" /><linearGradient
       x1="51.368862"
       y1="64.594604"
       x2="184.67395"
       y2="-19.864828"
       id="d-99"
       gradientTransform="scale(0.92602084,1.0798893)"
       gradientUnits="userSpaceOnUse"><stop
         stop-color="#41873F"
         offset="13.76%"
         id="stop6-85" /><stop
         stop-color="#54A044"
         offset="40.32%"
         id="stop7-4" /><stop
         stop-color="#66B848"
         offset="71.36%"
         id="stop8-10" /><stop
         stop-color="#6CC04A"
         offset="90.81%"
         id="stop9-6" /></linearGradient><linearGradient
       x1="5.4630942"
       y1="1.3961854"
       x2="60.624519"
       y2="1.3961854"
       id="e-6"
       gradientTransform="scale(1.6318162,0.6128141)"
       gradientUnits="userSpaceOnUse"><stop
         stop-color="#6CC04A"
         offset="9.192%"
         id="stop10-5" /><stop
         stop-color="#66B848"
         offset="28.64%"
         id="stop11-9" /><stop
         stop-color="#54A044"
         offset="59.68%"
         id="stop12-1" /><stop
         stop-color="#41873F"
         offset="86.24%"
         id="stop13-3" /></linearGradient><linearGradient
       x1="-1.4223322"
       y1="66.989662"
       x2="120.27905"
       y2="66.989662"
       id="f"
       gradientTransform="scale(0.92514783,1.0809083)"
       gradientUnits="userSpaceOnUse"><stop
         stop-color="#6CC04A"
         offset="9.192%"
         id="stop14-7" /><stop
         stop-color="#66B848"
         offset="28.64%"
         id="stop15-8" /><stop
         stop-color="#54A044"
         offset="59.68%"
         id="stop16-7" /><stop
         stop-color="#41873F"
         offset="86.24%"
         id="stop17-8" /></linearGradient><linearGradient
       x1="117.94696"
       y1="68.39164"
       x2="169.56171"
       y2="68.39164"
       id="g"
       gradientTransform="scale(0.65492335,1.5268962)"
       gradientUnits="userSpaceOnUse"><stop
         stop-color="#6CC04A"
         offset="9.192%"
         id="stop18-1" /><stop
         stop-color="#66B848"
         offset="28.64%"
         id="stop19-2" /><stop
         stop-color="#54A044"
         offset="59.68%"
         id="stop20-7" /><stop
         stop-color="#41873F"
         offset="86.24%"
         id="stop21-2" /></linearGradient><linearGradient
       x1="-1.0387961"
       y1="150.7515"
       x2="87.897064"
       y2="150.7515"
       id="h"
       gradientTransform="scale(1.2659747,0.78990523)"
       gradientUnits="userSpaceOnUse"><stop
         stop-color="#6CC04A"
         offset="9.192%"
         id="stop22-0" /><stop
         stop-color="#66B848"
         offset="28.64%"
         id="stop23-6" /><stop
         stop-color="#54A044"
         offset="59.68%"
         id="stop24-7" /><stop
         stop-color="#41873F"
         offset="86.24%"
         id="stop25-7" /></linearGradient><linearGradient
       x1="100.85387"
       y1="37.182247"
       x2="46.003895"
       y2="216.51321"
       id="i"
       gradientTransform="scale(1.2659747,0.78990523)"
       gradientUnits="userSpaceOnUse"><stop
         stop-color="#41873F"
         offset="0%"
         id="stop26-6" /><stop
         stop-color="#418B3D"
         offset="32.88%"
         id="stop27-4" /><stop
         stop-color="#419637"
         offset="63.52%"
         id="stop28-7" /><stop
         stop-color="#3FA92D"
         offset="93.19%"
         id="stop29-4" /><stop
         stop-color="#3FAE2A"
         offset="100%"
         id="stop30-7" /></linearGradient></defs><g
     inkscape:label="Layer 1"
     inkscape:groupmode="layer"
     id="layer1"
     transform="translate(913.49605,277.79909)"><g
       id="g710"><g
         transform="matrix(0.37052261,0,0,0.37052261,-913.13806,-277.13721)"
         id="g708"
         style="fill:#333333;stroke-width:1.11575"><mask
           id="mask695"
           fill="#ffffff"><use
             xlink:href="#a-6"
             id="use695" /></mask><use
           fill="url(#b)"
           xlink:href="#a-6"
           id="use696"
           style="fill:#333333;stroke-width:1.11575" /><g
           mask="url(#c-9)"
           id="g698"
           style="fill:#333333;stroke-width:1.11575"><path
             d="M 51.893,1.85 3.121,29.933 C 1.27,30.974 0,32.94 0,35.02 v 56.286 c 0,1.387 0.578,2.658 1.502,3.698 L 56.285,1.156 C 54.898,0.925 53.28,1.04 51.893,1.849 Z m 4.739,123.203 c 0.462,-0.116 0.925,-0.347 1.387,-0.578 L 106.792,96.39 c 1.85,-1.04 3.005,-3.005 3.005,-5.085 V 35.019 c 0,-1.502 -0.694,-3.005 -1.734,-4.045 l -51.43,94.079 z"
             id="path697"
             style="fill:#333333;stroke-width:1.11575" /><path
             d="M 106.676,29.934 57.788,1.85 A 8.025,8.025 0 0 0 56.285,1.272 L 1.502,95.12 a 6.082,6.082 0 0 0 1.619,1.387 l 48.888,28.085 c 1.387,0.809 3.005,1.04 4.507,0.577 l 51.432,-94.078 c -0.347,-0.462 -0.81,-0.81 -1.272,-1.156 z"
             fill="url(#d)"
             id="path698"
             style="fill:#333333;stroke-width:1.11575" /></g><g
           mask="url(#c-9)"
           id="g707"
           style="fill:#333333;stroke-width:1.11575"><path
             d="M 109.797,91.305 V 35.019 c 0,-2.08 -1.271,-4.045 -3.12,-5.085 L 57.786,1.85 A 5.106,5.106 0 0 0 55.938,1.157 l 53.511,91.42 c 0.231,-0.347 0.347,-0.809 0.347,-1.271 z M 3.12,29.934 C 1.272,30.974 0,32.94 0,35.02 v 56.286 c 0,2.08 1.387,4.045 3.12,5.085 l 48.889,28.085 c 1.156,0.693 2.427,0.925 3.814,0.693 L 3.467,29.818 3.121,29.934 Z"
             id="path700"
             style="fill:#333333;stroke-width:1.11575" /><path
             fill="url(#e)"
             fill-rule="evenodd"
             d="m 50.391,0.809 -0.693,0.347 h 0.924 z"
             transform="translate(0,-9.246)"
             id="path701"
             style="fill:#333333;stroke-width:1.11575" /><path
             d="m 106.792,105.636 c 1.387,-0.809 2.427,-2.196 2.89,-3.698 L 56.053,10.402 c -1.387,-0.231 -2.89,-0.116 -4.16,0.693 L 3.351,39.065 55.706,134.53 a 8.057,8.057 0 0 0 2.196,-0.693 l 48.889,-28.2 z"
             fill="url(#f)"
             fill-rule="evenodd"
             transform="translate(0,-9.246)"
             id="path703"
             style="fill:#333333;stroke-width:1.11575" /><path
             fill="url(#g)"
             fill-rule="evenodd"
             d="m 111.3,104.712 -0.347,-0.578 v 0.809 l 0.346,-0.231 z"
             transform="translate(0,-9.246)"
             id="path704"
             style="fill:#333333;stroke-width:1.11575" /><path
             d="m 106.792,105.636 -48.773,28.085 a 6.973,6.973 0 0 1 -2.196,0.693 l 0.925,1.734 54.089,-31.32 v -0.694 l -1.387,-2.312 c -0.231,1.618 -1.271,3.005 -2.658,3.814 z"
             fill="url(#h)"
             fill-rule="evenodd"
             transform="translate(0,-9.246)"
             id="path706"
             style="fill:#333333;stroke-width:1.11575" /><path
             d="m 106.792,105.636 -48.773,28.085 a 6.973,6.973 0 0 1 -2.196,0.693 l 0.925,1.734 54.089,-31.32 v -0.694 l -1.387,-2.312 c -0.231,1.618 -1.271,3.005 -2.658,3.814 z"
             fill="url(#i)"
             fill-rule="evenodd"
             transform="translate(0,-9.246)"
             id="path707"
             style="fill:#333333;stroke-width:1.11575" /></g></g><g
         transform="matrix(0.37052261,0,0,0.37052261,-913.66723,-278.19555)"
         id="g41"
         style="fill:none;stroke-width:1.11575"><mask
           id="c-9"
           fill="#ffffff"><use
             xlink:href="#a-6"
             id="use32" /></mask><use
           fill="url(#b)"
           xlink:href="#a-6"
           id="use33"
           style="fill:url(#b-8);stroke-width:1.11575" /><g
           mask="url(#c-9)"
           id="g34"
           style="stroke-width:1.11575"><path
             d="M 51.893,1.85 3.121,29.933 C 1.27,30.974 0,32.94 0,35.02 v 56.286 c 0,1.387 0.578,2.658 1.502,3.698 L 56.285,1.156 C 54.898,0.925 53.28,1.04 51.893,1.849 Z m 4.739,123.203 c 0.462,-0.116 0.925,-0.347 1.387,-0.578 L 106.792,96.39 c 1.85,-1.04 3.005,-3.005 3.005,-5.085 V 35.019 c 0,-1.502 -0.694,-3.005 -1.734,-4.045 l -51.43,94.079 z"
             id="path33-2"
             style="stroke-width:1.11575" /><path
             d="M 106.676,29.934 57.788,1.85 A 8.025,8.025 0 0 0 56.285,1.272 L 1.502,95.12 a 6.082,6.082 0 0 0 1.619,1.387 l 48.888,28.085 c 1.387,0.809 3.005,1.04 4.507,0.577 l 51.432,-94.078 c -0.347,-0.462 -0.81,-0.81 -1.272,-1.156 z"
             fill="url(#d)"
             id="path34-7"
             style="fill:url(#d-99);stroke-width:1.11575" /></g><g
           mask="url(#c-9)"
           id="g40"
           style="stroke-width:1.11575"><path
             d="M 109.797,91.305 V 35.019 c 0,-2.08 -1.271,-4.045 -3.12,-5.085 L 57.786,1.85 A 5.106,5.106 0 0 0 55.938,1.157 l 53.511,91.42 c 0.231,-0.347 0.347,-0.809 0.347,-1.271 z M 3.12,29.934 C 1.272,30.974 0,32.94 0,35.02 v 56.286 c 0,2.08 1.387,4.045 3.12,5.085 l 48.889,28.085 c 1.156,0.693 2.427,0.925 3.814,0.693 L 3.467,29.818 3.121,29.934 Z"
             id="path35-35"
             style="stroke-width:1.11575" /><path
             fill="url(#e)"
             fill-rule="evenodd"
             d="m 50.391,0.809 -0.693,0.347 h 0.924 z"
             transform="translate(0,-9.246)"
             id="path36-7"
             style="fill:url(#e-6);stroke-width:1.11575" /><path
             d="m 106.792,105.636 c 1.387,-0.809 2.427,-2.196 2.89,-3.698 L 56.053,10.402 c -1.387,-0.231 -2.89,-0.116 -4.16,0.693 L 3.351,39.065 55.706,134.53 a 8.057,8.057 0 0 0 2.196,-0.693 l 48.889,-28.2 z"
             fill="url(#f)"
             fill-rule="evenodd"
             transform="translate(0,-9.246)"
             id="path37-6"
             style="fill:url(#f);stroke-width:1.11575" /><path
             fill="url(#g)"
             fill-rule="evenodd"
             d="m 111.3,104.712 -0.347,-0.578 v 0.809 l 0.346,-0.231 z"
             transform="translate(0,-9.246)"
             id="path38-6"
             style="fill:url(#g);stroke-width:1.11575" /><path
             d="m 106.792,105.636 -48.773,28.085 a 6.973,6.973 0 0 1 -2.196,0.693 l 0.925,1.734 54.089,-31.32 v -0.694 l -1.387,-2.312 c -0.231,1.618 -1.271,3.005 -2.658,3.814 z"
             fill="url(#h)"
             fill-rule="evenodd"
             transform="translate(0,-9.246)"
             id="path39-7"
             style="fill:url(#h);stroke-width:1.11575" /><path
             d="m 106.792,105.636 -48.773,28.085 a 6.973,6.973 0 0 1 -2.196,0.693 l 0.925,1.734 54.089,-31.32 v -0.694 l -1.387,-2.312 c -0.231,1.618 -1.271,3.005 -2.658,3.814 z"
             fill="url(#i)"
             fill-rule="evenodd"
             transform="translate(0,-9.246)"
             id="path40-2"
             style="fill:url(#i);stroke-width:1.11575" /></g></g></g></g><style
     type="text/css"
     id="style1">&#10;	.st0{fill:#76C2AF;}&#10;	.st1{opacity:0.2;}&#10;	.st2{fill:#231F20;}&#10;	.st3{fill:#FFFFFF;}&#10;</style><style
     type="text/css"
     id="style1-1">&#10;	.st0{fill:#C75C5C;}&#10;	.st1{opacity:0.2;}&#10;	.st2{fill:#231F20;}&#10;	.st3{fill:#E0995E;}&#10;	.st4{fill:#F5CF87;}&#10;	.st5{fill:#4F5D73;}&#10;</style><style
     type="text/css"
     id="style1-9">	.st0{clip-path:url(#SVGID_2_);fill:#E30613;}	.st1{clip-path:url(#SVGID_2_);}</style></svg>
