<?xml version="1.0" encoding="UTF-8" standalone="no"?>
<!-- Created with Inkscape (http://www.inkscape.org/) -->

<svg
   width="137.34303mm"
   height="137.34306mm"
   viewBox="0 0 137.34303 137.34306"
   version="1.1"
   id="svg1"
   inkscape:version="1.3 (0e150ed6c4, 2023-07-21)"
   sodipodi:docname="drawing.svg"
   xml:space="preserve"
   xmlns:inkscape="http://www.inkscape.org/namespaces/inkscape"
   xmlns:sodipodi="http://sodipodi.sourceforge.net/DTD/sodipodi-0.dtd"
   xmlns="http://www.w3.org/2000/svg"
   xmlns:svg="http://www.w3.org/2000/svg"><sodipodi:namedview
     id="namedview1"
     pagecolor="#ffffff"
     bordercolor="#999999"
     borderopacity="1"
     inkscape:showpageshadow="2"
     inkscape:pageopacity="0"
     inkscape:pagecheckerboard="0"
     inkscape:deskcolor="#d1d1d1"
     inkscape:document-units="mm"
     inkscape:zoom="0.1157493"
     inkscape:cx="1909.2988"
     inkscape:cy="-876.89513"
     inkscape:window-width="1920"
     inkscape:window-height="991"
     inkscape:window-x="-9"
     inkscape:window-y="-9"
     inkscape:window-maximized="1"
     inkscape:current-layer="layer1" /><defs
     id="defs1" /><g
     inkscape:label="Layer 1"
     inkscape:groupmode="layer"
     id="layer1"
     transform="translate(-971.22304,525.75554)"><g
       id="g88"><rect
         style="fill:#fbe4dd;fill-opacity:1;fill-rule:evenodd;stroke-width:0.765;stroke-linecap:round;-inkscape-stroke:none"
         id="rect34"
         width="137.34306"
         height="137.34306"
         x="971.22302"
         y="-525.75555"
         ry="27.618076" /><g
         id="g58"
         transform="matrix(0.96649612,0,0,0.96649612,977.256,-516.7772)"
         style="fill:#16502d;stroke-width:0.273755"><path
           fill="#0acf83"
           d="M 45.5,129 C 57.4,129 67,119.4 67,107.5 V 86 H 45.5 C 33.6,86 24,95.6 24,107.5 24,119.4 33.6,129 45.5,129 Z m 0,0"
           id="path54"
           style="fill:#16502d;stroke-width:0.273755" /><path
           fill="#a259ff"
           d="M 24,64.5 C 24,52.6 33.6,43 45.5,43 H 67 V 86 H 45.5 C 33.6,86 24,76.4 24,64.5 Z m 0,0"
           id="path55"
           style="fill:#16502d;stroke-width:0.273755" /><path
           fill="#f24e1e"
           d="M 24,21.5 C 24,9.6 33.6,0 45.5,0 H 67 V 43 H 45.5 C 33.6,43 24,33.4 24,21.5 Z m 0,0"
           id="path56"
           style="fill:#16502d;stroke-width:0.273755" /><path
           fill="#ff7262"
           d="M 67,0 H 88.5 C 100.4,0 110,9.6 110,21.5 110,33.4 100.4,43 88.5,43 H 67 Z m 0,0"
           id="path57"
           style="fill:#16502d;stroke-width:0.273755" /><path
           fill="#1abcfe"
           d="M 110,64.5 C 110,76.4 100.4,86 88.5,86 76.6,86 67,76.4 67,64.5 67,52.6 76.6,43 88.5,43 100.4,43 110,52.6 110,64.5 Z m 0,0"
           id="path58"
           style="fill:#16502d;stroke-width:0.273755" /></g><g
         id="g26"
         transform="matrix(0.96649612,0,0,0.96649612,975.13932,-519.42305)"
         style="stroke-width:0.273755"><path
           fill="#0acf83"
           d="M 45.5,129 C 57.4,129 67,119.4 67,107.5 V 86 H 45.5 C 33.6,86 24,95.6 24,107.5 24,119.4 33.6,129 45.5,129 Z m 0,0"
           id="path1-1"
           style="stroke-width:0.273755" /><path
           fill="#a259ff"
           d="M 24,64.5 C 24,52.6 33.6,43 45.5,43 H 67 V 86 H 45.5 C 33.6,86 24,76.4 24,64.5 Z m 0,0"
           id="path2-1"
           style="stroke-width:0.273755" /><path
           fill="#f24e1e"
           d="M 24,21.5 C 24,9.6 33.6,0 45.5,0 H 67 V 43 H 45.5 C 33.6,43 24,33.4 24,21.5 Z m 0,0"
           id="path3-5"
           style="stroke-width:0.273755" /><path
           fill="#ff7262"
           d="M 67,0 H 88.5 C 100.4,0 110,9.6 110,21.5 110,33.4 100.4,43 88.5,43 H 67 Z m 0,0"
           id="path4-3"
           style="stroke-width:0.273755" /><path
           fill="#1abcfe"
           d="M 110,64.5 C 110,76.4 100.4,86 88.5,86 76.6,86 67,76.4 67,64.5 67,52.6 76.6,43 88.5,43 100.4,43 110,52.6 110,64.5 Z m 0,0"
           id="path5-33"
           style="stroke-width:0.273755" /></g></g></g></svg>
