<?xml version="1.0" encoding="UTF-8" standalone="no"?>
<!-- Created with Inkscape (http://www.inkscape.org/) -->

<svg
   width="137.34303mm"
   height="137.34306mm"
   viewBox="0 0 137.34303 137.34306"
   version="1.1"
   id="svg1"
   inkscape:version="1.3 (0e150ed6c4, 2023-07-21)"
   sodipodi:docname="drawing.svg"
   xml:space="preserve"
   xmlns:inkscape="http://www.inkscape.org/namespaces/inkscape"
   xmlns:sodipodi="http://sodipodi.sourceforge.net/DTD/sodipodi-0.dtd"
   xmlns="http://www.w3.org/2000/svg"
   xmlns:svg="http://www.w3.org/2000/svg"><sodipodi:namedview
     id="namedview1"
     pagecolor="#ffffff"
     bordercolor="#999999"
     borderopacity="1"
     inkscape:showpageshadow="2"
     inkscape:pageopacity="0"
     inkscape:pagecheckerboard="0"
     inkscape:deskcolor="#d1d1d1"
     inkscape:document-units="mm"
     inkscape:zoom="0.1157493"
     inkscape:cx="1909.2988"
     inkscape:cy="-876.89513"
     inkscape:window-width="1920"
     inkscape:window-height="991"
     inkscape:window-x="-9"
     inkscape:window-y="-9"
     inkscape:window-maximized="1"
     inkscape:current-layer="layer1" /><defs
     id="defs1" /><g
     inkscape:label="Layer 1"
     inkscape:groupmode="layer"
     id="layer1"
     transform="translate(-790.19448,525.75554)"><g
       id="g87"><rect
         style="fill:#1572b6;fill-opacity:1;fill-rule:evenodd;stroke-width:0.765;stroke-linecap:round;-inkscape-stroke:none"
         id="rect32"
         width="137.34306"
         height="137.34306"
         x="790.19446"
         y="-525.75555"
         ry="27.618076" /><g
         id="g70"
         transform="matrix(0.99505974,0,0,0.99505974,797.82804,-518.12252)"
         style="fill:#16502d;stroke-width:0.265897"><path
           fill="#1572b6"
           d="M 18.814,114.123 8.76,1.352 h 110.48 l -10.064,112.754 -45.243,12.543 z"
           id="path65"
           style="fill:#16502d;stroke-width:0.265897" /><path
           fill="#33a9dc"
           d="m 64.001,117.062 36.559,-10.136 8.601,-96.354 h -45.16 z"
           id="path66"
           style="fill:#16502d;stroke-width:0.265897" /><path
           fill="#ffffff"
           d="M 64.001,51.429 H 82.303 L 83.567,37.266 H 64.001 V 23.435 h 34.682 l -0.332,3.711 -3.4,38.114 h -30.95 z"
           id="path67"
           style="fill:#16502d;stroke-width:0.265897" /><path
           fill="#ebebeb"
           d="M 64.083,87.349 64.022,87.367 48.619,83.208 47.634,72.177 H 33.752 l 1.937,21.717 28.331,7.863 0.063,-0.018 z"
           id="path68"
           style="fill:#16502d;stroke-width:0.265897" /><path
           fill="#ffffff"
           d="m 81.127,64.675 -1.666,18.522 -15.426,4.164 v 14.39 l 28.354,-7.858 0.208,-2.337 2.406,-26.881 z"
           id="path69"
           style="fill:#16502d;stroke-width:0.265897" /><path
           fill="#ebebeb"
           d="M 64.048,23.435 V 37.266 H 30.64 l -0.277,-3.108 -0.63,-7.012 -0.331,-3.711 z M 64.001,51.431 V 65.262 H 48.792 l -0.277,-3.108 -0.631,-7.012 -0.33,-3.711 z"
           id="path70"
           style="fill:#16502d;stroke-width:0.265897" /></g><g
         id="g24"
         transform="matrix(0.99505974,0,0,0.99505974,795.18219,-520.76837)"
         style="stroke-width:0.265897"><path
           fill="#1572b6"
           d="M 18.814,114.123 8.76,1.352 h 110.48 l -10.064,112.754 -45.243,12.543 z"
           id="path1-3"
           style="stroke-width:0.265897" /><path
           fill="#33a9dc"
           d="m 64.001,117.062 36.559,-10.136 8.601,-96.354 h -45.16 z"
           id="path2-4"
           style="stroke-width:0.265897" /><path
           fill="#ffffff"
           d="M 64.001,51.429 H 82.303 L 83.567,37.266 H 64.001 V 23.435 h 34.682 l -0.332,3.711 -3.4,38.114 h -30.95 z"
           id="path3-0"
           style="stroke-width:0.265897" /><path
           fill="#ebebeb"
           d="M 64.083,87.349 64.022,87.367 48.619,83.208 47.634,72.177 H 33.752 l 1.937,21.717 28.331,7.863 0.063,-0.018 z"
           id="path4-1"
           style="stroke-width:0.265897" /><path
           fill="#ffffff"
           d="m 81.127,64.675 -1.666,18.522 -15.426,4.164 v 14.39 l 28.354,-7.858 0.208,-2.337 2.406,-26.881 z"
           id="path5-3"
           style="stroke-width:0.265897" /><path
           fill="#ebebeb"
           d="M 64.048,23.435 V 37.266 H 30.64 l -0.277,-3.108 -0.63,-7.012 -0.331,-3.711 z M 64.001,51.431 V 65.262 H 48.792 l -0.277,-3.108 -0.631,-7.012 -0.33,-3.711 z"
           id="path6-9"
           style="stroke-width:0.265897" /></g></g></g></svg>
