<?xml version="1.0" encoding="UTF-8" standalone="no"?>
<!-- Created with Inkscape (http://www.inkscape.org/) -->

<svg
   width="44.897354mm"
   height="46.013004mm"
   viewBox="0 0 44.897354 46.013004"
   version="1.1"
   id="svg5"
   xml:space="preserve"
   inkscape:version="1.3 (0e150ed6c4, 2023-07-21)"
   sodipodi:docname="_ICONsQueFiz.svg"
   xmlns:inkscape="http://www.inkscape.org/namespaces/inkscape"
   xmlns:sodipodi="http://sodipodi.sourceforge.net/DTD/sodipodi-0.dtd"
   xmlns="http://www.w3.org/2000/svg"
   xmlns:svg="http://www.w3.org/2000/svg"><sodipodi:namedview
     id="namedview7"
     pagecolor="#ffffff"
     bordercolor="#999999"
     borderopacity="1"
     inkscape:showpageshadow="0"
     inkscape:pageopacity="0"
     inkscape:pagecheckerboard="0"
     inkscape:deskcolor="#d1d1d1"
     inkscape:document-units="mm"
     showgrid="false"
     showguides="true"
     inkscape:zoom="0.31999998"
     inkscape:cx="-789.06255"
     inkscape:cy="-1092.1876"
     inkscape:window-width="1920"
     inkscape:window-height="991"
     inkscape:window-x="-9"
     inkscape:window-y="-9"
     inkscape:window-maximized="1"
     inkscape:current-layer="layer1"><sodipodi:guide
       position="602.55985,16.262673"
       orientation="0,-1"
       id="guide7"
       inkscape:locked="false" /><sodipodi:guide
       position="602.55985,-29.750697"
       orientation="0,-1"
       id="guide8"
       inkscape:locked="false" /><sodipodi:guide
       position="1448.5034,10.325303"
       orientation="0,-1"
       id="guide30"
       inkscape:locked="false" /><sodipodi:guide
       position="3023.9771,-21.573317"
       orientation="0,-1"
       id="guide1"
       inkscape:locked="false" /><sodipodi:guide
       position="2459.4794,25.297443"
       orientation="0,-1"
       id="guide67"
       inkscape:locked="false" /><sodipodi:guide
       position="496.93257,96.190963"
       orientation="0,-1"
       id="guide6"
       inkscape:locked="false" /><sodipodi:guide
       position="496.93257,142.20434"
       orientation="0,-1"
       id="guide9"
       inkscape:locked="false" /><sodipodi:guide
       position="134.644,250.98701"
       orientation="0,-1"
       id="guide10"
       inkscape:locked="false" /><sodipodi:guide
       position="841.54947,297.00037"
       orientation="0,-1"
       id="guide11"
       inkscape:locked="false" /></sodipodi:namedview><defs
     id="defs2"><style
       type="text/css"
       id="style1-2">&#10;   <![CDATA[
    .fil0 {fill:none}
    .fil2 {fill:black;fill-rule:nonzero}
    .fil3 {fill:#ACD4F7;fill-rule:nonzero}
    .fil4 {fill:#DEDEDE;fill-rule:nonzero}
    .fil1 {fill:white;fill-rule:nonzero}
   ]]>&#10;  </style></defs><g
     inkscape:label="Layer 1"
     inkscape:groupmode="layer"
     id="layer1"
     transform="translate(461.6107,277.78799)"><g
       id="g1522"
       transform="matrix(0.97751627,0,0,0.97751627,-10.378732,-6.2457107)"
       style="stroke-width:1.023"><g
         id="g1521"
         transform="matrix(0.34357235,0,0,0.34357235,-472.90066,-288.06705)"
         style="fill:#4d4d4d;stroke-width:14.3832"><path
           d="M 95.72,81.45 V 94 l -30.11,-30.1 10,-10 15.19,15.2 a 9.75,9.75 0 0 0 -0.61,3.43 9.91,9.91 0 0 0 5.53,8.92 z m 9.23,1.81 4.68,4.68 -4.68,4.69 z M 133.59,64 115.5,82.07 109.41,76 a 9.83,9.83 0 0 0 0.54,-4.67 10,10 0 0 0 -9.39,-8.68 9.64,9.64 0 0 0 -3.89,0.6 L 81.47,48 94.35,35.16 a 7.36,7.36 0 0 1 10.42,0 z"
           fill="#ff8080"
           id="path1518"
           style="fill:#4d4d4d;stroke-width:14.3832" /><path
           d="M 89.74,105.53 62.38,132.89 35.23,106 a 8.49,8.49 0 0 1 0.09,-11.86 l 28,-28 26.42,26.51 a 9.12,9.12 0 0 1 0,12.88 z"
           fill="#80b3ff"
           id="path1519"
           style="fill:#4d4d4d;stroke-width:14.3832" /><path
           d="m 105,108.79 v 11.49 a 9.46,9.46 0 0 1 4.46,9.88 9.32,9.32 0 0 1 -7.42,7.53 A 9.47,9.47 0 0 1 95.72,120 v -12.7 a 1,1 0 0 0 -1.63,-0.68 l -28.67,28.66 29.5,29.5 a 7.33,7.33 0 0 0 10.36,0 L 133.11,137 Z"
           fill="#ffe680"
           id="path1520"
           style="fill:#4d4d4d;stroke-width:14.3832" /><path
           d="M 163.54,107.45 137,134 108.42,105.42 a 8.56,8.56 0 0 1 0,-12.1 L 111.71,90 119,97.27 a 9.92,9.92 0 1 0 5.88,-5.88 L 117.63,84.15 136.17,65.62 163.54,93 a 10.19,10.19 0 0 1 0,14.45 z"
           fill="#8dd35f"
           id="path1521"
           style="fill:#4d4d4d;stroke-width:14.3832" /></g><g
         id="g104"
         transform="matrix(0.34357235,0,0,0.34357235,-472.90066,-289.12539)"
         style="stroke-width:14.3832"><path
           d="M 95.72,81.45 V 94 l -30.11,-30.1 10,-10 15.19,15.2 a 9.75,9.75 0 0 0 -0.61,3.43 9.91,9.91 0 0 0 5.53,8.92 z m 9.23,1.81 4.68,4.68 -4.68,4.69 z M 133.59,64 115.5,82.07 109.41,76 a 9.83,9.83 0 0 0 0.54,-4.67 10,10 0 0 0 -9.39,-8.68 9.64,9.64 0 0 0 -3.89,0.6 L 81.47,48 94.35,35.16 a 7.36,7.36 0 0 1 10.42,0 z"
           fill="#ff8080"
           id="path1-20"
           style="stroke-width:14.3832" /><path
           d="M 89.74,105.53 62.38,132.89 35.23,106 a 8.49,8.49 0 0 1 0.09,-11.86 l 28,-28 26.42,26.51 a 9.12,9.12 0 0 1 0,12.88 z"
           fill="#80b3ff"
           id="path2-570"
           style="stroke-width:14.3832" /><path
           d="m 105,108.79 v 11.49 a 9.46,9.46 0 0 1 4.46,9.88 9.32,9.32 0 0 1 -7.42,7.53 A 9.47,9.47 0 0 1 95.72,120 v -12.7 a 1,1 0 0 0 -1.63,-0.68 l -28.67,28.66 29.5,29.5 a 7.33,7.33 0 0 0 10.36,0 L 133.11,137 Z"
           fill="#ffe680"
           id="path3-07"
           style="stroke-width:14.3832" /><path
           d="M 163.54,107.45 137,134 108.42,105.42 a 8.56,8.56 0 0 1 0,-12.1 L 111.71,90 119,97.27 a 9.92,9.92 0 1 0 5.88,-5.88 L 117.63,84.15 136.17,65.62 163.54,93 a 10.19,10.19 0 0 1 0,14.45 z"
           fill="#8dd35f"
           id="path4-94"
           style="stroke-width:14.3832" /></g></g></g><style
     type="text/css"
     id="style1">&#10;	.st0{fill:#76C2AF;}&#10;	.st1{opacity:0.2;}&#10;	.st2{fill:#231F20;}&#10;	.st3{fill:#FFFFFF;}&#10;</style><style
     type="text/css"
     id="style1-1">&#10;	.st0{fill:#C75C5C;}&#10;	.st1{opacity:0.2;}&#10;	.st2{fill:#231F20;}&#10;	.st3{fill:#E0995E;}&#10;	.st4{fill:#F5CF87;}&#10;	.st5{fill:#4F5D73;}&#10;</style><style
     type="text/css"
     id="style1-9">	.st0{clip-path:url(#SVGID_2_);fill:#E30613;}	.st1{clip-path:url(#SVGID_2_);}</style></svg>
