<?xml version="1.0" encoding="UTF-8" standalone="no"?>
<!-- Created with Inkscape (http://www.inkscape.org/) -->

<svg
   width="34.698723mm"
   height="46.012985mm"
   viewBox="0 0 34.698723 46.012985"
   version="1.1"
   id="svg5"
   xml:space="preserve"
   inkscape:version="1.3 (0e150ed6c4, 2023-07-21)"
   sodipodi:docname="_ICONsQueFiz.svg"
   xmlns:inkscape="http://www.inkscape.org/namespaces/inkscape"
   xmlns:sodipodi="http://sodipodi.sourceforge.net/DTD/sodipodi-0.dtd"
   xmlns="http://www.w3.org/2000/svg"
   xmlns:svg="http://www.w3.org/2000/svg"><sodipodi:namedview
     id="namedview7"
     pagecolor="#ffffff"
     bordercolor="#999999"
     borderopacity="1"
     inkscape:showpageshadow="0"
     inkscape:pageopacity="0"
     inkscape:pagecheckerboard="0"
     inkscape:deskcolor="#d1d1d1"
     inkscape:document-units="mm"
     showgrid="false"
     showguides="true"
     inkscape:zoom="0.11313708"
     inkscape:cx="-3623.9226"
     inkscape:cy="-817.59229"
     inkscape:window-width="1920"
     inkscape:window-height="991"
     inkscape:window-x="-9"
     inkscape:window-y="-9"
     inkscape:window-maximized="1"
     inkscape:current-layer="layer1"><sodipodi:guide
       position="1169.3431,16.262673"
       orientation="0,-1"
       id="guide7"
       inkscape:locked="false" /><sodipodi:guide
       position="1169.3431,-29.750697"
       orientation="0,-1"
       id="guide8"
       inkscape:locked="false" /><sodipodi:guide
       position="2015.2867,10.325303"
       orientation="0,-1"
       id="guide30"
       inkscape:locked="false" /><sodipodi:guide
       position="3590.7603,-21.573317"
       orientation="0,-1"
       id="guide1"
       inkscape:locked="false" /><sodipodi:guide
       position="3026.2626,25.297443"
       orientation="0,-1"
       id="guide67"
       inkscape:locked="false" /><sodipodi:guide
       position="1063.7158,96.190963"
       orientation="0,-1"
       id="guide6"
       inkscape:locked="false" /><sodipodi:guide
       position="1063.7158,142.20434"
       orientation="0,-1"
       id="guide9"
       inkscape:locked="false" /><sodipodi:guide
       position="701.42725,250.98701"
       orientation="0,-1"
       id="guide10"
       inkscape:locked="false" /><sodipodi:guide
       position="1408.3327,297.00037"
       orientation="0,-1"
       id="guide11"
       inkscape:locked="false" /><sodipodi:guide
       position="1071.512,362.42689"
       orientation="0,-1"
       id="guide713"
       inkscape:locked="false" /></sodipodi:namedview><defs
     id="defs2"><style
       type="text/css"
       id="style1-2">&#10;   <![CDATA[
    .fil0 {fill:none}
    .fil2 {fill:black;fill-rule:nonzero}
    .fil3 {fill:#ACD4F7;fill-rule:nonzero}
    .fil4 {fill:#DEDEDE;fill-rule:nonzero}
    .fil1 {fill:white;fill-rule:nonzero}
   ]]>&#10;  </style></defs><g
     inkscape:label="Layer 1"
     inkscape:groupmode="layer"
     id="layer1"
     transform="translate(1028.3939,277.78799)"><g
       id="g770"
       inkscape:export-filename="img-ssms.png"
       inkscape:export-xdpi="96"
       inkscape:export-ydpi="96"><path
         style="fill:#fae065;fill-opacity:1;fill-rule:nonzero;stroke:none;stroke-width:0.264583"
         d="m -1011.0445,-265.22949 c -9.5809,0 -17.3494,-2.70581 -17.3494,-6.2783 v 33.45258 c 0,3.43775 7.6333,6.2254 17.1054,6.28021 h 0.244 c 9.581,0 17.34936,-2.70734 17.34936,-6.28021 v -33.45258 c 0,3.49103 -7.76836,6.27869 -17.34936,6.27869 z m 0,0"
         id="path724" /><path
         style="fill:#eda750;fill-opacity:1;fill-rule:nonzero;stroke:none;stroke-width:0.264583"
         d="m -993.69514,-271.50779 c 0,3.49103 -7.76836,6.27869 -17.34936,6.27869 -9.5809,0 -17.3494,-2.7062 -17.3494,-6.27869 0,-3.57287 7.7685,-6.28021 17.3494,-6.28021 9.581,0 17.34936,2.70734 17.34936,6.28021"
         id="path725" /><path
         d="m -1011.2693,-235.22455 c 0.4457,0.0176 0.8964,0.0299 1.3534,0.0325 h 0.202 c 0.4958,0 0.9856,-0.009 1.4685,-0.0261 0.4829,-0.0171 0.959,-0.0427 1.4266,-0.0762 0.4675,-0.0335 0.9266,-0.0749 1.3764,-0.12408 0.4498,-0.0492 0.89,-0.1062 1.3196,-0.1703 0.4297,-0.0641 0.8487,-0.13525 1.2558,-0.21351 0.4072,-0.0783 0.8023,-0.16334 1.1844,-0.25502 0.3821,-0.0917 0.7513,-0.19003 1.1061,-0.29438 0.3548,-0.10435 0.69506,-0.21491 1.01996,-0.33118 0.325,-0.11628 0.6345,-0.23837 0.9273,-0.36584 0.2927,-0.12746 0.5689,-0.26003 0.8271,-0.39793 0.2582,-0.1379 0.4986,-0.28114 0.7197,-0.42873 0.2212,-0.14759 0.4229,-0.29958 0.6046,-0.45612 0.1817,-0.15655 0.3431,-0.31748 0.4831,-0.48222 0.069,-0.0824 0.1348,-0.1656 0.1938,-0.24988 0.059,-0.0843 0.1126,-0.16978 0.1605,-0.25588 0.048,-0.0861 0.09,-0.17318 0.1262,-0.261 0.036,-0.0878 0.067,-0.17626 0.091,-0.26572 0.025,-0.0895 0.043,-0.17985 0.055,-0.27085 0.012,-0.091 0.019,-0.18268 0.019,-0.27513 v -27.69886 c 0,0.0903 -0.01,0.18043 -0.019,0.26958 -0.012,0.0891 -0.031,0.17744 -0.055,0.26528 -0.025,0.0878 -0.055,0.17499 -0.091,0.26143 -0.036,0.0864 -0.079,0.17223 -0.1262,0.25716 -0.048,0.0849 -0.1015,0.16912 -0.1605,0.25245 -0.059,0.0833 -0.1239,0.16571 -0.1938,0.24732 -0.14,0.16321 -0.3014,0.32307 -0.4831,0.47879 -0.1817,0.15573 -0.3834,0.30747 -0.6046,0.45484 -0.2211,0.14738 -0.4615,0.29012 -0.7197,0.42831 -0.2582,0.13819 -0.5344,0.27191 -0.8271,0.40006 -0.2928,0.12817 -0.6023,0.25112 -0.9273,0.36841 -0.3249,0.1173 -0.66516,0.22902 -1.01996,0.33461 -0.3548,0.10557 -0.724,0.20477 -1.1061,0.2978 -0.3821,0.093 -0.7772,0.17966 -1.1844,0.2593 -0.4071,0.0797 -0.8261,0.1524 -1.2558,0.21779 -0.4296,0.0654 -0.8698,0.12341 -1.3196,0.17372 -0.4498,0.0503 -0.9089,0.0927 -1.3764,0.12707 -0.4676,0.0344 -0.9437,0.0607 -1.4266,0.0783 -0.4829,0.0176 -0.9727,0.0265 -1.4685,0.0265 -0.4958,0 -0.9856,-0.009 -1.4685,-0.0261 -0.029,-8.3e-4 -0.057,-0.003 -0.087,-0.005 z"
         style="fill:#f9ce00;fill-opacity:1;fill-rule:evenodd;stroke-width:0.665001;stroke-linecap:round"
         id="path730" /><g
         id="g740"
         transform="matrix(0.04437061,0,0,0.04437061,-1024.7146,-259.69809)"
         style="stroke-width:9.31967"><g
           id="g731"
           transform="matrix(-0.99999692,0.00248342,0.00248342,0.99999692,563.41835,42.870289)"
           style="fill:#a95ec7;fill-opacity:1;stroke-width:9.31967">&#10;	&#10;	<path
   style="fill:#a95ec7;fill-opacity:1;stroke-width:9.31967"
   d="m 143.36509,88.20278 -50.524191,47.2133 C 210.21708,252.79226 411.5181,463.82207 421.57217,471.39633 c 26.12647,16.67271 79.00625,-24.92805 52.60424,-47.75308"
   id="path731"
   sodipodi:nodetypes="cccc" />&#10;</g><g
           id="g733"
           transform="matrix(-1.2531275,0.00311205,0.00311205,1.2531275,572.192,20.431408)"
           style="fill:#a95ec7;fill-opacity:1;stroke-width:7.43711">&#10;	<path
   style="fill:#a95ec7;fill-opacity:1;stroke-width:7.43711"
   d="M 55.248073,-19.31072 91.262599,43.4232 88.938487,49.232165 C 79.643355,68.981854 58.732925,80.598467 37.82118,79.437726 H 32.012216 L -4.0009944,17.865863 C -27.235536,52.718333 -20.265831,102.67227 16.910751,129.39298 43.630145,149.14267 80.806727,149.14267 108.68818,130.55503 152.83446,100.34947 156.31932,41.10172 121.46685,5.0871939 102.87921,-13.501755 79.643355,-21.633516 55.248073,-19.31072"
   id="path733" />&#10;	&#10;</g><path
           style="fill:#a95ec7;fill-opacity:1;stroke-width:9.31967"
           d="m 229.46065,147.715 c -20.303,-20.303 -19.38724,-28.93252 0.20377,-51.601567 L 294.50002,37.37 239.66602,-22.058634 C 188.02449,0.66279426 77.830016,82.059646 71.44665,120.349 c -2.648,16.772 1.766,20.303 -9.71,32.662 -3.531,3.531 -8.828,3.531 -12.359,0 -3.531,-3.531 -8.828,-3.531 -12.359,0 L 6.1216502,183.908 c -7.06200002,7.062 -7.06200002,17.655 0,24.717 L 68.79765,271.301 c 7.062,7.062 17.655,7.062 24.717,0 l 29.131,-30.014 c 3.531,-3.531 3.531,-8.828 0,-12.359 -3.531,-3.531 -3.531,-9.71 0,-13.241 12.359,-12.359 15.89,-7.945 32.662,-9.71 11.476,-1.766 21.186,-7.062 29.131,-15.007 l 45.022,-43.255"
           id="path734"
           sodipodi:nodetypes="csccccsssssccssccc" /><path
           style="fill:#a95ec7;fill-opacity:1;stroke-width:9.31967"
           d="m 229.46065,147.715 273.655,306.317 c 10.593,10.593 11.476,28.248 0.883,37.959 l -12.359,12.359 c -10.593,10.593 -27.366,9.71 -37.959,-0.883 L 173.23335,192.32747 Z"
           id="path736"
           sodipodi:nodetypes="cccsccc" /><g
           id="g739"
           transform="matrix(-1,0,0,1,511.86665,0)"
           style="fill:#a95ec7;fill-opacity:1;stroke-width:9.31967">&#10;	<path
   style="fill:#a95ec7;fill-opacity:1;stroke-width:9.31967"
   d="m 39.647,424.018 18.538,18.538 c 1.766,1.766 4.414,2.648 6.179,2.648 2.648,0 4.414,-0.883 6.179,-2.648 3.531,-3.531 3.531,-8.828 0,-12.359 L 52.006,411.66 c -0.883,-0.883 -1.766,-1.766 -2.648,-1.766 l -10.593,12.359 c 0,0 0,0.883 0.882,1.765"
   id="path737" />&#10;	<path
   style="fill:#a95ec7;fill-opacity:1;stroke-width:9.31967"
   d="m 14.93,448.736 18.538,18.538 c 1.766,1.766 4.414,2.648 6.179,2.648 2.648,0 4.414,-0.883 6.179,-2.648 3.531,-3.531 3.531,-8.828 0,-12.359 L 27.288,436.377 26.405,435.494 14.93,448.736 c -0.883,0 -0.883,0 0,0"
   id="path739" />&#10;</g></g></g></g><style
     type="text/css"
     id="style1">&#10;	.st0{fill:#76C2AF;}&#10;	.st1{opacity:0.2;}&#10;	.st2{fill:#231F20;}&#10;	.st3{fill:#FFFFFF;}&#10;</style><style
     type="text/css"
     id="style1-1">&#10;	.st0{fill:#C75C5C;}&#10;	.st1{opacity:0.2;}&#10;	.st2{fill:#231F20;}&#10;	.st3{fill:#E0995E;}&#10;	.st4{fill:#F5CF87;}&#10;	.st5{fill:#4F5D73;}&#10;</style><style
     type="text/css"
     id="style1-9">	.st0{clip-path:url(#SVGID_2_);fill:#E30613;}	.st1{clip-path:url(#SVGID_2_);}</style></svg>
